<?xml version="1.0" encoding="UTF-8"?>
<svg version="1.1" xmlns="http://www.w3.org/2000/svg" width="1254" height="1254">
<path d="M0 0 C413.82 0 827.64 0 1254 0 C1254 413.82 1254 827.64 1254 1254 C840.18 1254 426.36 1254 0 1254 C0 840.18 0 426.36 0 0 Z " fill="#00000E" transform="translate(0,0)"/>
<path d="M0 0 C5.53278505 3.34196771 11.15117866 6.53468229 16.76123047 9.74462891 C24.67516963 14.28043876 32.52565707 18.90933804 40.34008789 23.61352539 C44.14626669 25.90370268 47.96361236 28.17469189 51.78466797 30.43994141 C52.41492889 30.81365372 53.04518982 31.18736603 53.69454956 31.57240295 C54.98791346 32.33914892 56.28133042 33.10580541 57.57479858 33.87237549 C68.03084154 40.06960148 78.47329482 46.28768449 88.88623047 52.55712891 C98.40002827 58.28269698 107.96624255 63.91375891 117.55307007 69.51568604 C126.98815722 75.03024188 136.37406121 80.62105156 145.73461914 86.26147461 C153.17145101 90.73493038 160.64459077 95.14273377 168.13635254 99.52325439 C173.4928127 102.65555773 178.84557618 105.79418053 184.19873047 108.93212891 C185.21563965 109.52751465 186.23254883 110.12290039 187.28027344 110.73632812 C190.00718296 112.33645369 192.72880969 113.94516017 195.44873047 115.55712891 C196.21548096 116.00531982 196.98223145 116.45351074 197.7722168 116.9152832 C222.49605319 131.64384996 241.06357474 154.88458586 248.19873047 182.93212891 C248.37143904 183.59807225 248.54414761 184.2640156 248.72208977 184.95013905 C250.93511868 194.99683144 250.46296347 205.24088967 250.42578125 215.46801758 C250.42521646 217.64695226 250.42553502 219.82588732 250.42666626 222.00482178 C250.42723813 227.89451211 250.41551066 233.78412033 250.40151834 239.67379165 C250.38898332 245.83837574 250.3878383 252.00296189 250.38546753 258.16755676 C250.3792609 269.82968654 250.36286114 281.49177864 250.34276855 293.15389186 C250.3203841 306.43563167 250.30940972 319.71736847 250.29937768 332.99912298 C250.27849419 360.31014581 250.24333412 387.62113524 250.19873047 414.93212891 C247.13032158 411.88455865 244.14330308 408.80243761 241.25585938 405.58203125 C233.71597529 397.18735817 225.45566198 390.26732584 216.54248047 383.36181641 C216.01126713 382.94364906 215.48005379 382.52548172 214.93274307 382.09464264 C213.22461742 380.84929919 213.22461742 380.84929919 211.15511703 380.18825531 C208.49532462 379.0972923 207.0626711 378.14565881 205.19873047 375.93212891 C203.95843543 370.391763 204.17053958 364.88319993 204.26220703 359.23095703 C204.26114925 357.49763435 204.25651731 355.7643107 204.24858093 354.03100586 C204.23910479 350.29885269 204.25479762 346.56795007 204.28995514 342.83595276 C204.34534185 336.92570319 204.34407245 331.01628736 204.33514404 325.10583496 C204.32763763 315.7466564 204.35739979 306.38803117 204.40336299 297.02897596 C204.48523742 280.29931759 204.52273902 263.56964957 204.51875472 246.83979368 C204.5190667 240.97490569 204.54153023 235.110653 204.58229017 229.2459116 C204.60416498 225.58076835 204.6096258 221.91572138 204.61121559 218.2505188 C204.61543829 216.56275704 204.62649776 214.87499488 204.64526176 213.18733215 C204.82594494 196.36255195 201.46234326 181.12407106 189.37451172 168.63525391 C183.29382611 162.54000394 176.43245751 158.4560183 168.94873047 154.30712891 C167.64485722 153.56647444 166.34204907 152.82394198 165.0402832 152.07958984 C162.52480732 150.64308907 160.0053113 149.2141853 157.48144531 147.79248047 C153.70212014 145.65069423 149.9710184 143.44148155 146.26123047 141.18212891 C140.46993465 137.687266 134.65081329 134.24197636 128.82373047 130.80712891 C120.7599235 126.05192765 112.7218393 121.25565985 104.69873047 116.43212891 C88.41961857 106.64915904 72.06286886 97.00307713 55.65161133 87.44360352 C47.03951431 82.42660038 38.44062383 77.38732569 29.84393311 72.34399414 C21.49054189 67.44374934 13.12967628 62.55663891 4.76123047 57.68212891 C-3.1046943 53.09783535 -10.96003045 48.49603262 -18.80126953 43.86962891 C-19.69128662 43.34530273 -20.58130371 42.82097656 -21.49829102 42.28076172 C-25.40937455 39.96934389 -29.29563853 37.63329583 -33.13330078 35.20166016 C-35.84945227 33.49357544 -38.54165365 31.96774692 -41.48876953 30.68212891 C-42.19388672 30.36759766 -42.89900391 30.05306641 -43.62548828 29.72900391 C-49.08271318 27.73030753 -54.49101546 27.68509308 -60.23876953 27.61962891 C-61.0528125 27.590625 -61.86685547 27.56162109 -62.70556641 27.53173828 C-75.30449191 27.40526258 -85.97363099 31.95805315 -96.42626953 38.61962891 C-98.0139917 39.60104858 -98.0139917 39.60104858 -99.63378906 40.60229492 C-101.88190999 41.99196172 -104.1260411 43.38648249 -106.36572266 44.78955078 C-111.52064225 48.01311829 -116.72396002 51.15710788 -121.92391968 54.30728149 C-123.67940433 55.37152935 -125.43348959 56.43805015 -127.18725586 57.50512695 C-138.72721065 64.52190349 -150.35213327 71.39236295 -161.97998047 78.26220703 C-167.3034933 81.41319593 -172.6053301 84.59977043 -177.90478516 87.79101562 C-181.76369205 90.11291712 -185.62664206 92.42808983 -189.48876953 94.74462891 C-194.46027454 97.72659345 -199.43151638 100.70897045 -204.39892578 103.69775391 C-211.9836615 108.25873084 -219.57726953 112.80403281 -227.19189453 117.31494141 C-227.84569595 117.70229462 -228.49949738 118.08964783 -229.17311096 118.48873901 C-229.83810104 118.88271881 -230.50309113 119.27669861 -231.18823242 119.68261719 C-244.01575368 127.28268011 -256.80896997 134.93248163 -269.53100586 142.70800781 C-275.39881905 146.2870413 -281.28752178 149.8165747 -287.23095703 153.26806641 C-288.45975036 153.98456158 -289.68851051 154.70111367 -290.91723633 155.41772461 C-293.21725569 156.75851886 -295.52355468 158.0854279 -297.83569336 159.40551758 C-312.05743808 167.68754727 -321.81959347 177.79768113 -326.34557122 193.86433125 C-327.91344805 200.19009618 -328.08485115 206.24015373 -328.06196594 212.7355957 C-328.06579149 213.8966643 -328.06961704 215.05773291 -328.07355851 216.2539854 C-328.0820533 219.45437071 -328.0816696 222.65460813 -328.07737792 225.85499716 C-328.0749016 229.31517826 -328.08393596 232.77533288 -328.09141541 236.23550415 C-328.10413849 243.00515094 -328.10595916 249.77475802 -328.10361514 256.54441476 C-328.10182946 262.04803677 -328.10358698 267.55164676 -328.10783958 273.05526733 C-328.10843477 273.83965201 -328.10902996 274.62403669 -328.10964319 275.4321906 C-328.11085498 277.02583321 -328.11206911 278.61947582 -328.11328556 280.21311843 C-328.1241515 295.14400419 -328.12200286 310.07486733 -328.11590072 325.00575435 C-328.11073013 338.65643444 -328.12199243 352.30704321 -328.14099894 365.95770919 C-328.16038258 379.98714828 -328.16863256 394.01655364 -328.16487569 408.0460062 C-328.16296473 415.91736258 -328.16544107 423.78865823 -328.17959023 431.66000366 C-328.19151156 438.35952003 -328.19290035 445.05893825 -328.18080006 451.75845599 C-328.17491716 455.17429679 -328.17379551 458.58995812 -328.18580246 462.0057869 C-328.19625158 465.71357819 -328.18818326 469.42088811 -328.17549133 473.12866211 C-328.18655276 474.73767411 -328.18655276 474.73767411 -328.19783765 476.3791914 C-328.09784643 490.27719448 -321.81546649 504.93818167 -312.09814453 514.94775391 C-308.08398977 518.41576516 -303.68127719 521.0345661 -299.07421875 523.64306641 C-296.38090673 525.17053015 -293.7025501 526.72280312 -291.02392578 528.27587891 C-286.56495858 530.85812029 -282.10099124 533.43141718 -277.63330078 535.99853516 C-271.30037006 539.6402162 -264.98437093 543.31013604 -258.67626953 546.99462891 C-257.69126465 547.56995361 -256.70625977 548.14527832 -255.69140625 548.73803711 C-253.70987621 549.89568832 -251.72843045 551.0534838 -249.74707031 552.21142578 C-246.82732634 553.91690859 -243.90633794 555.62023767 -240.98486328 557.32275391 C-230.08131991 563.67723925 -219.18712871 570.04741515 -208.30126953 576.43212891 C-191.2683741 586.42100736 -174.22599974 596.39205447 -157.11376953 606.24462891 C-146.42110617 612.40105974 -135.76990002 618.62570577 -125.13110352 624.87451172 C-118.49351508 628.7724398 -111.8457285 632.651411 -105.17626953 636.49462891 C-96.25306505 641.64167422 -87.38172028 646.87675742 -78.53442383 652.15307617 C-73.69733756 655.03666393 -68.86420875 657.91730613 -63.95361328 660.67431641 C-55.60742548 665.39356502 -50.10891457 669.4138473 -46.36376953 678.36962891 C-45.16837204 685.94047966 -46.4528809 692.56285454 -50.80126953 698.93212891 C-56.42726597 704.8197996 -63.01236753 706.95889876 -70.98876953 707.55712891 C-78.5203134 707.26745414 -84.44369513 703.60764558 -90.80126953 699.93212891 C-91.62723633 699.4596875 -92.45320313 698.98724609 -93.30419922 698.50048828 C-99.37206537 695.02125742 -105.40268309 691.48069172 -111.42529297 687.92382812 C-114.87238271 685.8901748 -118.32404207 683.86452734 -121.77783203 681.84228516 C-122.36658112 681.4975415 -122.9553302 681.15279785 -123.56192017 680.79760742 C-124.76423581 680.09359781 -125.96655722 679.38959804 -127.16888428 678.68560791 C-130.22947127 676.89290067 -133.28876819 675.09799489 -136.34814453 673.30322266 C-141.3366684 670.37693262 -146.32631606 667.45256975 -151.31689453 664.52978516 C-162.15542233 658.18143244 -172.99144096 651.8292909 -183.80126953 645.43212891 C-197.10986564 637.55662544 -210.4538397 629.74156974 -223.80126953 621.93212891 C-224.86168457 621.31160645 -225.92209961 620.69108398 -227.01464844 620.05175781 C-236.05922576 614.76142428 -245.10618883 609.47582481 -254.19189453 604.25634766 C-265.99232861 597.47716824 -277.73046151 590.6155859 -289.37573242 583.57275391 C-294.80380988 580.29917926 -300.25603168 577.07652167 -305.76220703 573.93603516 C-306.34218445 573.60465546 -306.92216187 573.27327576 -307.51971436 572.93185425 C-310.29541442 571.34734236 -313.07510058 569.77063795 -315.86181641 568.20556641 C-342.26646464 553.18950447 -362.73174884 531.35473667 -370.94189453 501.64697266 C-373.055418 492.51078711 -374.09506444 483.92747109 -374.06869507 474.54216003 C-374.07322618 473.34207489 -374.07775729 472.14198974 -374.08242571 470.90553838 C-374.09282899 467.60528419 -374.09440715 464.30524948 -374.09203696 461.00499475 C-374.09162626 457.43363756 -374.10269179 453.86231202 -374.1121521 450.29096985 C-374.1287076 443.30602651 -374.13425914 436.32111694 -374.13537686 429.33615562 C-374.13632977 423.65480173 -374.14045217 417.97345892 -374.14677811 412.29210854 C-374.16437439 396.15877848 -374.17361932 380.02547495 -374.17211716 363.89213523 C-374.17203725 363.02385609 -374.17195733 362.15557695 -374.171875 361.26098633 C-374.17179324 360.39163845 -374.17171148 359.52229057 -374.17162724 358.62659881 C-374.17081444 344.53968242 -374.18995484 330.45287297 -374.21815173 316.3659875 C-374.24692397 301.87654505 -374.26068969 287.38715469 -374.25896418 272.89768296 C-374.25830186 264.77298702 -374.26372507 256.64840324 -374.28532028 248.52373314 C-374.30358916 241.60663379 -374.3078327 234.68969751 -374.29430144 227.7725844 C-374.28780085 224.2487207 -374.28754808 220.72516931 -374.30500793 217.20133591 C-374.41178611 190.82311924 -374.41178611 190.82311924 -369.80126953 178.93212891 C-369.22743225 176.97708761 -368.66349901 175.01908538 -368.11376953 173.05712891 C-364.08653921 161.24391995 -357.15865094 150.14511061 -348.80126953 140.93212891 C-348.00333984 140.04138672 -347.20541016 139.15064453 -346.38330078 138.23291016 C-334.7299887 125.89107151 -319.88117643 118.12802482 -305.34106445 109.67504883 C-296.58287335 104.58194709 -287.88901414 99.39390338 -279.23876953 94.11962891 C-278.35910522 93.58355515 -278.35910522 93.58355515 -277.46166992 93.03665161 C-274.61401127 91.30120566 -271.76665575 89.56526359 -268.91943359 87.82910156 C-262.11085312 83.68701964 -255.26964653 79.59926013 -248.43115234 75.50683594 C-242.19104181 71.77041624 -235.95605451 68.0254431 -229.71972656 64.28271484 C-220.84971351 58.95988685 -220.84971351 58.95988685 -216.86376953 56.57666016 C-211.10205455 53.12896728 -205.35297066 49.66194327 -199.61767578 46.17041016 C-186.70547765 38.31007957 -173.76430801 30.50796938 -160.7487793 22.81933594 C-153.14326388 18.32539476 -145.55984845 13.7963174 -137.98876953 9.24462891 C-135.93415625 8.01273428 -133.8794697 6.78096185 -131.82470703 5.54931641 C-127.82266256 3.1496404 -123.82933378 0.73622469 -119.84033203 -1.68505859 C-77.91452261 -27.00162074 -41.38988795 -25.28623866 0 0 Z " fill="#5C4EFB" transform="translate(688.80126953125,271.06787109375)"/>
<path d="M0 0 C1.13515549 -0.01283524 2.27031097 -0.02567047 3.43986511 -0.03889465 C4.66796402 -0.04628159 5.89606293 -0.05366852 7.16137695 -0.0612793 C8.42552933 -0.06935104 9.6896817 -0.07742279 10.99214172 -0.08573914 C13.67123071 -0.0995816 16.35019661 -0.11059685 19.02929688 -0.11816406 C22.44441433 -0.12919788 25.85887469 -0.16356611 29.2737608 -0.20333576 C32.54873368 -0.23593466 35.82376658 -0.2402927 39.09887695 -0.2487793 C40.31685471 -0.26628738 41.53483246 -0.28379547 42.78971863 -0.30183411 C49.83759011 -0.28391879 54.4904126 0.33855697 60.4621582 4.17700195 C62.8371582 6.67700195 62.8371582 6.67700195 64.4621582 9.17700195 C64.81974181 9.71606643 65.17732542 10.2551309 65.5457449 10.81053066 C66.90849053 14.3295743 66.75468133 17.81935866 66.74977112 21.5405426 C66.75641893 22.3921841 66.76306674 23.2438256 66.769916 24.12127441 C66.78962952 26.98045845 66.79499048 29.83948599 66.80029297 32.69873047 C66.81118743 34.74728811 66.82285906 36.79584174 66.83525085 38.84439087 C66.86579054 44.41755763 66.88278585 49.99068301 66.89546704 55.56391644 C66.90355457 59.0516448 66.91373578 62.53936134 66.92448235 66.02708244 C66.95722538 76.95517104 66.98110953 87.88323085 66.99329621 98.81136185 C67.00751277 111.3943849 67.05125178 123.97684339 67.12079769 136.55967957 C67.17276938 146.30181017 67.19748469 156.04378136 67.20211834 165.78604835 C67.20550121 171.59562252 67.22011754 177.40462664 67.26339912 183.2140522 C67.30349992 188.6931282 67.30940427 194.17124505 67.29049873 199.65042496 C67.28924472 201.64688624 67.29967017 203.64339971 67.32351303 205.63971901 C67.4607052 217.83653367 65.97686582 227.63834254 61.19018459 238.9085989 C58.30852189 245.69988859 56.80957073 252.9439308 55.4621582 260.17700195 C55.28555664 261.07692871 55.10895508 261.97685547 54.92700195 262.90405273 C53.3374389 271.8723107 53.08979432 280.6961658 53.09155273 289.77661133 C53.08720003 292.27796666 53.05080424 294.77752137 53.01293945 297.27856445 C52.82348464 324.64386811 61.77339805 351.67084084 75.4309082 375.20825195 C76.4621582 377.17700195 76.4621582 377.17700195 76.4621582 379.17700195 C69.66267749 380.15808935 65.17562468 379.42978599 59.3996582 375.62231445 C58.25477597 374.88445397 57.10866129 374.14850287 55.96142578 373.41430664 C55.38091461 373.03947144 54.80040344 372.66463623 54.20230103 372.27844238 C49.30319036 369.17750234 44.19365008 366.40819509 39.1496582 363.55200195 C36.69039199 362.15389838 34.23238713 360.7535871 31.7746582 359.3527832 C31.16132126 359.00334152 30.54798431 358.65389984 29.9160614 358.29386902 C20.92299807 353.16516777 11.984076 347.94399791 3.05932617 342.69750977 C0.6389562 341.28050806 -1.78962885 339.87894165 -4.22143555 338.48168945 C-5.57711062 337.69298148 -6.93259605 336.90394741 -8.2878418 336.11450195 C-9.41706055 335.46352539 -10.5462793 334.81254883 -11.7097168 334.1418457 C-14.95501081 331.88717321 -16.51932183 330.61037555 -18.5378418 327.17700195 C-19.14329432 323.03562548 -19.07253636 318.9189675 -19.03904724 314.74014282 C-19.04458164 313.46265777 -19.05011603 312.18517272 -19.05581814 310.868976 C-19.07058481 307.32494179 -19.06038468 303.78135136 -19.04608142 300.23733139 C-19.03498203 296.4144598 -19.0469109 292.59165099 -19.05592346 288.76878357 C-19.06986581 281.27998041 -19.06229206 273.79134572 -19.04724788 266.30255057 C-19.03039533 257.58181239 -19.03359717 248.86111627 -19.03734196 240.14036684 C-19.04322255 224.57897677 -19.02904215 209.01766758 -19.00439453 193.45629883 C-18.98048144 178.35698412 -18.97338681 163.25777751 -18.98388672 148.15844727 C-18.99529818 131.71880954 -18.99722253 115.27922183 -18.98278862 98.83958471 C-18.98126278 97.08619587 -18.97974243 95.33280703 -18.97822762 93.57941818 C-18.97709089 92.2853583 -18.97709089 92.2853583 -18.97593121 90.96515579 C-18.9711895 84.88696626 -18.97303908 78.80879908 -18.97729301 72.73060989 C-18.9822218 65.32129839 -18.97622613 57.91208907 -18.95639872 50.50280096 C-18.94653217 46.72270255 -18.94141461 42.94275966 -18.94929123 39.16265297 C-18.9576563 35.06423085 -18.9427575 30.9662227 -18.92552185 26.86782837 C-18.9315319 25.67376204 -18.93754194 24.47969571 -18.94373411 23.24944556 C-18.89020372 16.26535148 -18.60635254 10.67789376 -13.8190918 5.21606445 C-13.2312793 4.74942383 -12.6434668 4.2827832 -12.0378418 3.80200195 C-11.4500293 3.31989258 -10.8622168 2.8377832 -10.2565918 2.34106445 C-6.91266463 0.07631378 -3.914856 0.03855515 0 0 Z " fill="#485FF9" transform="translate(576.537841796875,518.822998046875)"/>
<path d="M0 0 C0 14.52 0 29.04 0 44 C-3.7125 44.556875 -7.425 45.11375 -11.25 45.6875 C-20.19473139 47.12258614 -27.92053304 48.81784002 -36 53 C-36.804375 53.34417969 -37.60875 53.68835938 -38.4375 54.04296875 C-56.49573456 62.05920429 -73.65454941 79.6029851 -81 98 C-81.40734375 98.98871094 -81.8146875 99.97742188 -82.234375 100.99609375 C-89.87713166 120.79982498 -91.3829772 141.4235114 -86 162 C-85.73316406 163.02480469 -85.46632813 164.04960938 -85.19140625 165.10546875 C-81.66047798 176.98508076 -74.98508558 187.60478228 -67 197 C-66.57106445 197.53318848 -66.14212891 198.06637695 -65.70019531 198.61572266 C-62.18767015 202.8929029 -58.49014035 206.27667412 -54 209.5 C-53.35208496 209.96921875 -52.70416992 210.4384375 -52.03662109 210.921875 C-43.17402654 217.18136453 -33.50105248 222.14586779 -23 225 C-22.13246094 225.27714844 -21.26492188 225.55429687 -20.37109375 225.83984375 C3.19313082 232.50664523 28.17992548 227.2949327 49.25 215.8125 C56.82496582 211.51138222 62.94069113 206.21351284 69 200 C69.73734375 199.27167969 70.4746875 198.54335938 71.234375 197.79296875 C85.13707452 183.27057525 90.58935442 164.32699163 94 145 C108.19 145 122.38 145 137 145 C134.2932987 182.8938182 118.37588558 216.94825709 89.5546875 242.07421875 C66.52049846 261.29347292 36.0614211 273.61449257 6.12573242 273.39111328 C3.56960521 273.37504467 1.0150636 273.3910353 -1.54101562 273.41015625 C-11.45465104 273.42340633 -20.38670641 272.59941332 -30 270 C-30.84280518 269.78633789 -31.68561035 269.57267578 -32.55395508 269.35253906 C-62.46499324 261.47102651 -89.3635489 242.37406599 -107 217 C-107.5875708 216.16082031 -107.5875708 216.16082031 -108.18701172 215.3046875 C-116.14762094 203.80201752 -121.95773179 191.81047591 -126.25 178.5 C-126.48420654 177.7778833 -126.71841309 177.0557666 -126.9597168 176.31176758 C-131.04976217 162.98869042 -132.58169889 150.22131354 -132.5 136.375 C-132.49856995 135.58863159 -132.49713989 134.80226318 -132.4956665 133.99206543 C-132.43779189 121.09681664 -131.18704385 109.27370411 -127 97 C-126.77006348 96.29085449 -126.54012695 95.58170898 -126.30322266 94.85107422 C-114.5611647 59.02657892 -89.60701441 29.28123361 -56 12 C-37.46982847 3.70231286 -20.41047086 0 0 0 Z " fill="#1A9FFB" transform="translate(789,674)"/>
<path d="M0 0 C1.13515549 -0.01283524 2.27031097 -0.02567047 3.43986511 -0.03889465 C4.66796402 -0.04628159 5.89606293 -0.05366852 7.16137695 -0.0612793 C8.42552933 -0.06935104 9.6896817 -0.07742279 10.99214172 -0.08573914 C13.67123071 -0.0995816 16.35019661 -0.11059685 19.02929688 -0.11816406 C22.44441433 -0.12919788 25.85887469 -0.16356611 29.2737608 -0.20333576 C32.54873368 -0.23593466 35.82376658 -0.2402927 39.09887695 -0.2487793 C40.31685471 -0.26628738 41.53483246 -0.28379547 42.78971863 -0.30183411 C50.31233389 -0.28271202 56.31707475 0.20895308 62.01127625 5.65995789 C66.51505439 10.78384761 66.60556526 15.106083 66.58241272 21.62406921 C66.58326714 22.49642914 66.58412157 23.36878907 66.58500189 24.26758415 C66.586654 27.20184757 66.58113967 30.13605431 66.57568359 33.0703125 C66.57540164 35.16925047 66.57555962 37.26818855 66.5761261 39.36712646 C66.57641375 45.07545305 66.57052225 50.78375874 66.56355214 56.49208045 C66.5573132 62.45385111 66.55671437 68.41562221 66.55552673 74.37739563 C66.55241502 85.67145233 66.54420377 96.96549938 66.53417724 108.25955182 C66.52301117 121.11548192 66.51750441 133.97141247 66.51248181 146.82734621 C66.50202103 173.27723681 66.48442466 199.72711884 66.4621582 226.17700195 C65.65617691 226.37432419 64.85019562 226.57164642 64.01979065 226.77494812 C60.99313469 227.51792709 57.96737452 228.26442918 54.94215393 229.01322937 C53.00339457 229.49200211 51.06365613 229.96680454 49.12390137 230.44152832 C26.42497219 236.06914824 5.98412505 246.36143084 -11.6628418 261.73950195 C-14.5378418 264.17700195 -14.5378418 264.17700195 -16.5378418 264.17700195 C-16.5378418 264.83700195 -16.5378418 265.49700195 -16.5378418 266.17700195 C-17.1978418 266.17700195 -17.8578418 266.17700195 -18.5378418 266.17700195 C-18.62908204 233.92105446 -18.69987522 201.66514365 -18.74210311 169.40909728 C-18.74710597 165.60142597 -18.75228326 161.79375491 -18.75756836 157.98608398 C-18.7586176 157.22804169 -18.75966684 156.46999941 -18.76074788 155.68898614 C-18.77815557 143.41306602 -18.80969525 131.13722078 -18.84645298 118.8613451 C-18.8838523 106.26620258 -18.90607551 93.6710993 -18.91419578 81.07590353 C-18.91968566 73.30326301 -18.93702807 65.53083415 -18.96950766 57.75825877 C-18.99314073 51.79935724 -18.99566418 45.84056448 -18.99027252 39.88161469 C-18.99137469 37.43625967 -18.99935407 34.99089678 -19.0146637 32.54558945 C-19.03452295 29.21054671 -19.02979502 25.8764145 -19.01885986 22.54135132 C-19.03051123 21.5705275 -19.04216259 20.59970368 -19.05416703 19.59946096 C-18.99400057 12.82501591 -17.70985379 9.44208032 -12.94018555 4.5324707 C-8.48856822 0.98304782 -5.609217 0.05524192 0 0 Z " fill="#278AFA" transform="translate(701.537841796875,420.822998046875)"/>
<path d="M0 0 C1.70273323 -0.01441132 1.70273323 -0.01441132 3.43986511 -0.02911377 C4.66796402 -0.03336365 5.89606293 -0.03761353 7.16137695 -0.04199219 C8.42552933 -0.04769226 9.6896817 -0.05339233 10.99214172 -0.05926514 C13.67123004 -0.06872054 16.35020621 -0.0756142 19.02929688 -0.07910156 C22.44429423 -0.08456766 25.85888911 -0.10855791 29.2737608 -0.13707352 C32.54876856 -0.16031019 35.82379833 -0.16215761 39.09887695 -0.16699219 C40.92584358 -0.18551239 40.92584358 -0.18551239 42.78971863 -0.20440674 C50.02920681 -0.18552924 56.23804119 -0.16105901 62.09639454 4.44643021 C68.60573203 11.4792034 67.25409023 20.93142268 67.14331055 29.87792969 C67.14161681 31.7904149 67.14257062 33.70290401 67.14596558 35.61538696 C67.14768375 40.79277808 67.11246227 45.96933144 67.07052183 51.14652824 C67.0329583 56.56236371 67.02948502 61.9782194 67.02236938 67.39416504 C67.00373711 77.64346434 66.95452178 87.89237864 66.89427245 98.14150858 C66.82715712 109.81251794 66.79420563 121.48354591 66.76409984 133.15470028 C66.70142148 157.15705772 66.5959177 181.15907367 66.4621582 205.16113281 C62.66299381 204.47084159 59.96456582 203.51421844 56.63793945 201.52832031 C55.7048999 200.97700439 54.77186035 200.42568848 53.81054688 199.85766602 C52.30778198 198.95600708 52.30778198 198.95600708 50.7746582 198.03613281 C48.6110249 196.75545951 46.4469468 195.47553743 44.2824707 194.19628906 C43.16130859 193.53129395 42.04014648 192.86629883 40.88500977 192.18115234 C35.33076636 188.90327717 29.73993062 185.68953999 24.1496582 182.47363281 C21.97907058 181.22105414 19.80849741 179.96845041 17.63793945 178.71582031 C13.72478735 176.46012469 9.8058203 174.215236 5.88012695 171.98144531 C5.02265869 171.49119873 4.16519043 171.00095215 3.28173828 170.49584961 C1.72289191 169.60488009 0.16175639 168.71789556 -1.40234375 167.83618164 C-15.02402677 160.03099349 -15.02402677 160.03099349 -18.5378418 153.16113281 C-18.91536522 150.37622166 -18.91536522 150.37622166 -18.91879272 147.28529358 C-18.9272522 146.10910965 -18.93571167 144.93292572 -18.94442749 143.72109985 C-18.9383548 142.43939911 -18.9322821 141.15769836 -18.92602539 139.8371582 C-18.93009276 138.46685874 -18.93543557 137.09656257 -18.94195557 135.72627258 C-18.95561678 132.01132624 -18.95033522 128.29663023 -18.94081831 124.58167958 C-18.93321395 120.69006131 -18.94026962 116.79846422 -18.94497681 112.90684509 C-18.95043275 106.37088175 -18.94324769 99.83502015 -18.92895508 93.29907227 C-18.91263565 85.74922145 -18.91791248 78.19961379 -18.93443429 70.64976889 C-18.94806194 64.16213341 -18.94996238 57.674571 -18.94211829 51.18692583 C-18.9374479 47.31461538 -18.93679926 43.4424191 -18.94672775 39.57011604 C-18.95541356 35.92813337 -18.94934636 32.28646312 -18.93204498 28.64451408 C-18.92620551 26.67524517 -18.93508241 24.70594974 -18.94442749 22.73669434 C-18.93596802 21.55769058 -18.92750854 20.37868683 -18.91879272 19.16395569 C-18.91709611 17.63338075 -18.91709611 17.63338075 -18.91536522 16.07188511 C-18.25002378 10.94202032 -16.02249009 7.09052869 -12.0378418 3.84863281 C-11.4500293 3.3575 -10.8622168 2.86636719 -10.2565918 2.36035156 C-6.9287166 0.03840228 -3.92626591 0.02682003 0 0 Z " fill="#6E2DFA" transform="translate(450.537841796875,617.8388671875)"/>
<path d="M0 0 C33.35236575 0 63.07940879 14.16041261 86.56738281 37.52832031 C111.84037212 63.49041635 123 96.27584069 123 132 C82.41 132 41.82 132 0 132 C0 88.44 0 44.88 0 0 Z " fill="#04C0FB" transform="translate(814,662)"/>
<path d="M0 0 C5.63572841 2.10937631 10.68229471 5.11790894 15.88134766 8.12011719 C17.5952884 9.10787693 19.31518093 10.08528607 21.03515625 11.0625 C47.87889446 26.51704523 67.44493168 47.46642343 77.0390625 77.22265625 C77.35617187 78.46917969 77.67328125 79.71570313 78 81 C78.17270857 81.66594335 78.34541714 82.33188669 78.5233593 83.01801014 C80.73638821 93.06470254 80.264233 103.30876076 80.22705078 113.53588867 C80.22648599 115.71482335 80.22680455 117.89375841 80.22793579 120.07269287 C80.22850766 125.9623832 80.2167802 131.85199143 80.20278788 137.74166274 C80.19025285 143.90624684 80.18910783 150.07083298 80.18673706 156.23542786 C80.18053043 167.89755763 80.16413067 179.55964974 80.14403808 191.22176296 C80.12165364 204.50350276 80.11067925 217.78523956 80.10064721 231.06699407 C80.07976372 258.3780169 80.04460365 285.68900634 80 313 C76.93159111 309.95242975 73.94457261 306.87030871 71.05712891 303.64990234 C63.51724482 295.25522926 55.25693151 288.33519694 46.34375 281.4296875 C45.54692999 280.80243649 45.54692999 280.80243649 44.7340126 280.16251373 C43.02588695 278.91717029 43.02588695 278.91717029 40.95638657 278.2561264 C38.29659415 277.16516339 36.86394064 276.21352991 35 274 C33.75970496 268.4596341 33.97180911 262.95107102 34.06347656 257.29882812 C34.06241878 255.56550544 34.05778684 253.83218179 34.04985046 252.09887695 C34.04037432 248.36672378 34.05606715 244.63582116 34.09122467 240.90382385 C34.14661138 234.99357429 34.14534198 229.08415846 34.13641357 223.17370605 C34.12890716 213.8145275 34.15866932 204.45590226 34.20463252 195.09684706 C34.28650695 178.36718868 34.32400855 161.63752066 34.32002425 144.90766478 C34.32033623 139.04277679 34.34279976 133.17852409 34.3835597 127.31378269 C34.40543451 123.64863944 34.41089533 119.98359247 34.41248512 116.31838989 C34.41670782 114.63062814 34.42776729 112.94286598 34.4465313 111.25520325 C34.62721447 94.43042304 31.26361279 79.19194216 19.17578125 66.703125 C13.09495131 60.60773035 6.23363679 56.52442256 -1.25 52.375 C-2.53997775 51.64170434 -3.82887159 50.9064988 -5.11669922 50.16943359 C-7.61807527 48.73992293 -10.12355348 47.31819018 -12.63378906 45.90429688 C-16.82981573 43.53056552 -20.98776937 41.09943556 -25.125 38.625 C-26.22070312 37.97789062 -27.31640625 37.33078125 -28.4453125 36.6640625 C-30.61592625 35.25017648 -32.28736335 33.92523982 -34 32 C-28.53606388 33.52017301 -24.10966066 36.1361906 -19.3125 39.0625 C-17.81013392 39.97259942 -16.30628624 40.88025873 -14.80078125 41.78515625 C-14.14247314 42.18613525 -13.48416504 42.58711426 -12.8059082 43.00024414 C-10.86527156 44.14647641 -10.86527156 44.14647641 -8 45 C-8 45.66 -8 46.32 -8 47 C-7.28457031 47.27585937 -6.56914063 47.55171875 -5.83203125 47.8359375 C-3.04261145 48.98248522 -0.37709642 50.26227115 2.3125 51.625 C3.19550781 52.07101562 4.07851563 52.51703125 4.98828125 52.9765625 C5.65214844 53.31429687 6.31601562 53.65203125 7 54 C7 54.66 7 55.32 7 56 C7.72316406 56.25394531 8.44632813 56.50789063 9.19140625 56.76953125 C21.39425054 62.11570086 29.91811159 73.8865531 34.76847935 85.90401459 C36.89000211 91.76273565 37.53394756 97.07912185 37.68139648 103.28320312 C37.73113318 104.81899395 37.73113318 104.81899395 37.78187466 106.38581085 C38.20189801 121.22975889 38.12708294 136.08596555 38.10139394 150.93439293 C38.09504041 155.24243377 38.0945473 159.55047571 38.09336853 163.85852051 C38.09028993 171.97506757 38.08212456 180.09160078 38.07201904 188.2081418 C38.06074854 197.46607774 38.05532021 206.72401442 38.05032361 215.98195553 C38.03993805 234.98797814 38.02240763 253.99398795 38 273 C39.32 273.66 40.64 274.32 42 275 C42 275.66 42 276.32 42 277 C42.598125 277.103125 43.19625 277.20625 43.8125 277.3125 C46.33391022 278.10494321 47.19465768 279.11943508 49 281 C49.639375 281.309375 50.27875 281.61875 50.9375 281.9375 C53.45916314 283.23653859 55.03449401 284.9710906 57 287 C57.99 287.66 58.98 288.32 60 289 C60 289.66 60 290.32 60 291 C60.556875 291.061875 61.11375 291.12375 61.6875 291.1875 C65.00086472 292.35165517 66.70475296 294.39458444 69 297 C69.495 298.485 69.495 298.485 70 300 C70.99 300.33 71.98 300.66 73 301 C74.1875 303.0625 74.1875 303.0625 75 305 C75.66 305 76.32 305 77 305 C77.04675513 277.80938668 77.08200608 250.61877941 77.10362434 223.42813396 C77.11392961 210.80258018 77.12797565 198.1770514 77.15087891 185.55151367 C77.17083568 174.54497362 77.18372188 163.53845167 77.18817699 152.53189403 C77.19078048 146.70596468 77.19688429 140.88008714 77.21146011 135.05417442 C77.22508013 129.56559294 77.2292137 124.0770844 77.22621536 118.58848763 C77.22676355 116.57901996 77.23071455 114.56954974 77.23841095 112.56009674 C77.32007178 98.1688212 77.32007178 98.1688212 75 84 C74.75076373 82.89923142 74.75076373 82.89923142 74.49649239 81.77622509 C73.49813341 77.40263424 72.09534131 73.20231603 70.5859375 68.98046875 C70 67 70 67 70 64 C69.34 64 68.68 64 68 64 C67.49596232 62.70990357 66.99690074 61.41786211 66.5 60.125 C66.2215625 59.40570313 65.943125 58.68640625 65.65625 57.9453125 C65 56 65 56 65 54 C64.34 53.67 63.68 53.34 63 53 C60 48.5 60 48.5 60 46 C58.515 45.505 58.515 45.505 57 45 C57 44.01 57 43.02 57 42 C55.515 41.505 55.515 41.505 54 41 C52.78125 39.43359375 52.78125 39.43359375 51.5 37.4375 C48.22290493 32.85121368 44.21873279 29.99981326 39.5859375 26.859375 C37 25 37 25 34.8515625 22.828125 C33.03636578 20.7668399 33.03636578 20.7668399 30 20 C30 19.34 30 18.68 30 18 C28.35 17.67 26.7 17.34 25 17 C25 16.34 25 15.68 25 15 C24.15824219 14.75378906 23.31648437 14.50757813 22.44921875 14.25390625 C18.6018394 12.85525532 15.31504371 11.0270645 11.8125 8.9375 C7.08109198 6.11129079 7.08109198 6.11129079 2 4 C0.8125 1.9375 0.8125 1.9375 0 0 Z " fill="#00C9EA" transform="translate(859,373)"/>
<path d="M0 0 C0.99 0.495 0.99 0.495 2 1 C-3.26169891 6.61136877 -10.35794145 10.25629427 -17 14 C-18.17076842 14.72256241 -19.33714242 15.45227392 -20.5 16.1875 C-45.77352234 32.08773542 -45.77352234 32.08773542 -56 36 C-56 36.66 -56 37.32 -56 38 C-56.68964844 38.36351562 -57.37929688 38.72703125 -58.08984375 39.1015625 C-62.7883561 41.61516993 -67.35967502 44.16204289 -71.75 47.1875 C-74.31736013 48.94745712 -76.48351845 50.20594304 -79.375 51.4375 C-83.48099559 53.20732569 -86.96748924 55.4716792 -90.70703125 57.90625 C-94.60647969 60.3856146 -98.5738699 62.73030963 -102.5625 65.0625 C-103.30491943 65.4970752 -104.04733887 65.93165039 -104.81225586 66.37939453 C-106.24609937 67.21836757 -107.68009339 68.05708346 -109.11425781 68.89550781 C-114.63254582 72.12760711 -120.09963311 75.43943131 -125.53515625 78.80859375 C-126.35056885 79.31205322 -127.16598145 79.8155127 -128.00610352 80.33422852 C-129.65089658 81.35040953 -131.29337323 82.37035082 -132.93334961 83.39428711 C-133.68753174 83.85971924 -134.44171387 84.32515137 -135.21875 84.8046875 C-135.89873047 85.22733887 -136.57871094 85.64999023 -137.27929688 86.08544922 C-139 87 -139 87 -141 87 C-141.495 88.485 -141.495 88.485 -142 90 C-143.64678351 90.71437125 -145.31787084 91.37337115 -147 92 C-156.67800688 98.01483605 -166.2724545 106.05215781 -172 116 C-173.75062913 118.27698756 -175.55959532 120.49645192 -177.37890625 122.71875 C-179.07850284 125.11047147 -180.01022275 127.24423014 -181 130 C-181.60328125 131.54494141 -181.60328125 131.54494141 -182.21875 133.12109375 C-182.85296875 134.76271484 -182.85296875 134.76271484 -183.5 136.4375 C-183.9228125 137.52933594 -184.345625 138.62117187 -184.78125 139.74609375 C-186.631741 144.68666749 -188.1892764 149.41501047 -189.0625 154.625 C-189.93288354 159.76098218 -189.93288354 159.76098218 -190.52048934 161.85358727 C-191.06076116 164.27198253 -191.13030943 166.45031387 -191.13701439 168.92854118 C-191.1446262 170.4249633 -191.1446262 170.4249633 -191.15239179 171.95161617 C-191.15288955 173.04555128 -191.15338731 174.13948639 -191.15390015 175.26657104 C-191.1582824 176.43052938 -191.16266465 177.59448771 -191.1671797 178.7937175 C-191.17823698 182.02586408 -191.18478999 185.25798335 -191.18936086 188.49014449 C-191.19532389 191.97656336 -191.20693275 195.46296447 -191.21765137 198.94937134 C-191.24217122 207.37502276 -191.25680806 215.80068007 -191.26971143 224.22635621 C-191.27342564 226.60957689 -191.27739875 228.99279699 -191.2814641 231.37601709 C-191.30671832 246.19742851 -191.32875671 261.0188409 -191.34119225 275.84026909 C-191.34412166 279.27355833 -191.34708334 282.70684755 -191.35009766 286.14013672 C-191.35121673 287.42003305 -191.35121673 287.42003305 -191.35235842 288.72578587 C-191.36497868 302.5103001 -191.39815547 316.29468437 -191.43989949 330.07913803 C-191.48247806 344.25650729 -191.50590613 358.43381039 -191.51111281 372.61124337 C-191.51451049 380.5608422 -191.52606851 388.51023852 -191.55921555 396.45977402 C-191.58743787 403.23922008 -191.59811988 410.01842216 -191.58702008 416.79792236 C-191.58188798 420.24787469 -191.58435582 423.69731801 -191.60948563 427.14719391 C-191.71263087 444.03027449 -191.32128087 460.97255946 -184.83821678 476.84425163 C-184 479 -184 479 -184 483 C-183.34 483.33 -182.68 483.66 -182 484 C-180.94314146 485.73749841 -179.95208024 487.51544855 -179 489.3125 C-178.484375 490.27800781 -177.96875 491.24351562 -177.4375 492.23828125 C-176.26952819 494.48218361 -175.12047567 496.73211416 -174 499 C-173.34 499 -172.68 499 -172 499 C-171.01 502.465 -171.01 502.465 -170 506 C-184.70061416 492.19265232 -192.91227743 469.91926436 -194.18805003 450.07492673 C-194.26134691 446.91845739 -194.27629645 443.76734151 -194.26742554 440.61003113 C-194.27195665 439.40994598 -194.27648776 438.20986084 -194.28115618 436.97340947 C-194.29155946 433.67315529 -194.29313762 430.37312057 -194.29076743 427.07286584 C-194.29035673 423.50150865 -194.30142226 419.93018311 -194.31088257 416.35884094 C-194.32743807 409.3738976 -194.33298961 402.38898804 -194.33410732 395.40402671 C-194.33506024 389.72267283 -194.33918264 384.04133001 -194.34550858 378.35997963 C-194.36310486 362.22664957 -194.37234979 346.09334604 -194.37084763 329.96000632 C-194.37076772 329.09172718 -194.3706878 328.22344805 -194.37060547 327.32885742 C-194.37052371 326.45950954 -194.37044195 325.59016166 -194.37035771 324.69446991 C-194.36954491 310.60755351 -194.38868531 296.52074406 -194.4168822 282.4338586 C-194.44565444 267.94441614 -194.45942016 253.45502578 -194.45769465 238.96555406 C-194.45703232 230.84085811 -194.46245554 222.71627434 -194.48405075 214.59160423 C-194.50231962 207.67450489 -194.50656317 200.7575686 -194.4930319 193.84045549 C-194.48653132 190.31659179 -194.48627854 186.7930404 -194.5037384 183.269207 C-194.61051658 156.89099033 -194.61051658 156.89099033 -190 145 C-189.42616272 143.0449587 -188.86222948 141.08695647 -188.3125 139.125 C-184.28526967 127.31179104 -177.35738141 116.2129817 -169 107 C-168.20207031 106.10925781 -167.40414063 105.21851563 -166.58203125 104.30078125 C-154.92871917 91.9589426 -140.0799069 84.19589591 -125.53979492 75.74291992 C-116.78160382 70.64981819 -108.08774461 65.46177447 -99.4375 60.1875 C-98.55783569 59.65142624 -98.55783569 59.65142624 -97.66040039 59.10452271 C-94.81274174 57.36907675 -91.96538622 55.63313469 -89.11816406 53.89697266 C-82.30958359 49.75489074 -75.468377 45.66713123 -68.62988281 41.57470703 C-62.39117358 37.8391264 -56.15740819 34.09528889 -49.92285156 30.3527832 C-41.08200617 25.04650289 -41.08200617 25.04650289 -36.9921875 22.609375 C-31.68537937 19.44221388 -26.3979895 16.25669488 -21.16035461 12.97624207 C-18.77240268 11.48108934 -16.38098547 9.99151711 -13.98971558 8.50167847 C-12.79213305 7.7529942 -11.5964141 7.00132036 -10.40261841 6.24661255 C-8.7247091 5.18594349 -7.0402159 4.13571154 -5.35546875 3.0859375 C-3.88049927 2.1585376 -3.88049927 2.1585376 -2.37573242 1.21240234 C-1.59174072 0.81230957 -0.80774902 0.4122168 0 0 Z " fill="#7D10D8" transform="translate(509,305)"/>
<path d="M0 0 C5.46393612 1.52017301 9.89033934 4.1361906 14.6875 7.0625 C16.18986608 7.97259942 17.69371376 8.88025873 19.19921875 9.78515625 C19.85752686 10.18613525 20.51583496 10.58711426 21.1940918 11.00024414 C23.13472844 12.14647641 23.13472844 12.14647641 26 13 C26 13.66 26 14.32 26 15 C26.71542969 15.27585937 27.43085937 15.55171875 28.16796875 15.8359375 C30.95738855 16.98248522 33.62290358 18.26227115 36.3125 19.625 C37.19550781 20.07101562 38.07851563 20.51703125 38.98828125 20.9765625 C39.65214844 21.31429688 40.31601562 21.65203125 41 22 C41 22.66 41 23.32 41 24 C41.72316406 24.25394531 42.44632813 24.50789063 43.19140625 24.76953125 C55.39425054 30.11570086 63.91811159 41.8865531 68.76847935 53.90401459 C70.89000211 59.76273565 71.53394756 65.07912185 71.68139648 71.28320312 C71.73113318 72.81899395 71.73113318 72.81899395 71.78187466 74.38581085 C72.20189801 89.22975889 72.12708294 104.08596555 72.10139394 118.93439293 C72.09504041 123.24243377 72.0945473 127.55047571 72.09336853 131.85852051 C72.09028993 139.97506757 72.08212456 148.09160078 72.07201904 156.2081418 C72.06074854 165.46607774 72.05532021 174.72401442 72.05032361 183.98195553 C72.03993805 202.98797814 72.02240763 221.99398795 72 241 C73.98 241.99 73.98 241.99 76 243 C76 243.66 76 244.32 76 245 C76.598125 245.103125 77.19625 245.20625 77.8125 245.3125 C80.33391022 246.10494321 81.19465768 247.11943508 83 249 C83.639375 249.309375 84.27875 249.61875 84.9375 249.9375 C87.45916314 251.23653859 89.03449401 252.9710906 91 255 C92.485 255.99 92.485 255.99 94 257 C94 257.66 94 258.32 94 259 C94.556875 259.061875 95.11375 259.12375 95.6875 259.1875 C99.00086472 260.35165517 100.70475296 262.39458444 103 265 C103.495 266.485 103.495 266.485 104 268 C104.99 268.33 105.98 268.66 107 269 C108.1875 272.0625 108.1875 272.0625 109 275 C108.31679688 274.31164062 107.63359375 273.62328125 106.9296875 272.9140625 C90.74040633 256.21334637 90.74040633 256.21334637 71.33563328 243.80148888 C69 242 69 242 68.38031673 238.8872776 C68.38274663 237.59429441 68.38517653 236.30131123 68.38768005 234.96914673 C68.37937993 233.88875187 68.37937993 233.88875187 68.37091213 232.78653085 C68.35830211 230.36573728 68.38134879 227.94657993 68.40405273 225.52587891 C68.40214942 223.79285305 68.39799533 222.05982841 68.39175415 220.32681274 C68.38294771 216.58946957 68.38975017 212.85258997 68.40841484 209.11528397 C68.43748044 203.19688212 68.42971905 197.27888055 68.41651917 191.36044312 C68.39582625 179.85053342 68.41145393 168.34081613 68.43199158 156.83091736 C68.45710143 142.21691117 68.46989584 127.60301526 68.44203526 112.98900545 C68.43212162 107.11583816 68.4421184 101.24315257 68.46794307 95.37003827 C68.48019246 91.69830363 68.47587351 88.02671617 68.46736526 84.35497665 C68.46683414 82.66401189 68.47306199 80.97302793 68.48690605 79.28211975 C68.61787851 62.45425021 65.26735416 47.19580764 53.17578125 34.703125 C47.09495131 28.60773035 40.23363679 24.52442256 32.75 20.375 C31.46002225 19.64170434 30.17112841 18.9064988 28.88330078 18.16943359 C26.38192473 16.73992293 23.87644652 15.31819018 21.36621094 13.90429688 C17.17018427 11.53056552 13.01223063 9.09943556 8.875 6.625 C7.77929688 5.97789062 6.68359375 5.33078125 5.5546875 4.6640625 C3.38407375 3.25017648 1.71263665 1.92523982 0 0 Z " fill="#04B9EF" transform="translate(825,405)"/>
<path d="M0 0 C0.66 0.33 1.32 0.66 2 1 C1.401875 2.051875 0.80375 3.10375 0.1875 4.1875 C-4.48756971 13.60320474 -5.44656998 23.81557811 -5.38526917 34.17973328 C-5.39050486 35.33282433 -5.39574056 36.48591538 -5.40113491 37.67394859 C-5.41499073 41.49848097 -5.40782201 45.32267066 -5.40063477 49.1472168 C-5.40471446 51.90448456 -5.41332171 54.66173375 -5.42178345 57.41899109 C-5.43768904 63.33541637 -5.44304131 69.25177333 -5.44125557 75.16821861 C-5.43886371 83.7243646 -5.45490869 92.28040197 -5.47570812 100.83651946 C-5.5091586 114.72425699 -5.53087188 128.61198475 -5.54370117 142.49975586 C-5.54447066 143.32925185 -5.54524015 144.15874785 -5.54603296 145.01338009 C-5.54913584 148.37521979 -5.55221865 151.73705951 -5.555273 155.09889926 C-5.56382186 164.37737728 -5.57471931 173.65585195 -5.58666992 182.93432617 C-5.58773794 183.76613872 -5.58880596 184.59795127 -5.58990634 185.45497026 C-5.60797632 199.30709889 -5.6339486 213.15920411 -5.66480106 227.01130992 C-5.68337346 235.55171257 -5.69427194 244.09206276 -5.69532298 252.6324859 C-5.6964235 258.47307783 -5.7043427 264.31363367 -5.71770663 270.15421035 C-5.72514846 273.52666033 -5.72810948 276.89896423 -5.72458839 280.27143097 C-5.72121437 283.92006595 -5.72990811 287.5684742 -5.74171448 291.21708679 C-5.73773338 292.29185908 -5.73375229 293.36663136 -5.72965056 294.4739725 C-5.73526595 295.44528827 -5.74088135 296.41660405 -5.74666691 297.41735363 C-5.74731901 298.26012078 -5.74797112 299.10288794 -5.74864298 299.97119349 C-6 302 -6 302 -8 304 C-8.09163919 268.0413856 -8.16208116 232.08279174 -8.20426132 196.12408452 C-8.20926389 191.87479639 -8.21444121 187.62550849 -8.21972656 183.3762207 C-8.2207758 182.53029614 -8.22182505 181.68437158 -8.22290608 180.81281295 C-8.24029146 167.13192295 -8.27181881 153.45110047 -8.30861118 139.77025048 C-8.34607266 125.72300776 -8.36824684 111.67580031 -8.37635398 97.6285097 C-8.38183098 88.96685953 -8.39910326 80.30540025 -8.43166587 71.64380886 C-8.45287811 65.69695063 -8.45918494 59.75019048 -8.45400551 53.8032972 C-8.4514541 50.37683008 -8.45524869 46.95069553 -8.4768219 43.52428818 C-8.49683671 39.79761288 -8.49189638 36.07174243 -8.48101807 32.345047 C-8.49266943 31.27788462 -8.5043208 30.21072224 -8.51632524 29.11122161 C-8.43403151 18.62152767 -5.74154974 8.81737995 0 0 Z " fill="#8C17ED" transform="translate(366,450)"/>
<path d="M0 0 C0.33 0 0.66 0 1 0 C1.84590246 17.31517962 2.11860627 34.57340082 2.03417969 51.90698242 C2.02568493 54.49562922 2.01773647 57.08427785 2.01028442 59.67292786 C1.99394542 65.19294154 1.97433024 70.71293504 1.95290375 76.23293114 C1.91943759 84.98244336 1.89940775 93.73196534 1.88165283 102.48152161 C1.87854316 103.98148338 1.87542549 105.48144513 1.87229991 106.98140687 C1.86757549 109.25249445 1.86285702 111.52358203 1.85816751 113.79466968 C1.84053695 122.30476709 1.8214243 130.81486054 1.80078125 139.32495117 C1.7989042 140.10054633 1.79702714 140.8761415 1.79509321 141.67523954 C1.76417283 154.25563212 1.71849176 166.83593595 1.66837153 179.41626474 C1.61706947 192.40550971 1.58524925 205.39470775 1.57022786 218.38404542 C1.5603392 226.35721017 1.53528987 234.33001995 1.48977116 242.3030623 C1.45637838 248.42414917 1.4498651 254.54501047 1.45275497 260.66618156 C1.44981114 263.15483924 1.438433 265.64350546 1.41743088 268.13207626 C1.28677824 284.34767951 1.95875984 300.61959009 8.1619072 315.85344219 C9 318 9 318 9 322 C9.66 322.33 10.32 322.66 11 323 C12.05685854 324.73749841 13.04791976 326.51544855 14 328.3125 C14.515625 329.27800781 15.03125 330.24351562 15.5625 331.23828125 C16.73047181 333.48218361 17.87952433 335.73211416 19 338 C19.66 338 20.32 338 21 338 C21.99 341.465 21.99 341.465 23 345 C10.0626379 332.84876233 0.5522234 312.26348639 -0.09030545 294.50395226 C-0.12630713 291.33660784 -0.12836125 288.17074763 -0.12025452 285.00320435 C-0.12110894 283.78526275 -0.12196337 282.56732115 -0.12284368 281.31247222 C-0.12420459 277.93973918 -0.12108468 274.56706433 -0.11606562 271.19433832 C-0.11174315 267.55432799 -0.11320882 263.91431943 -0.1139679 260.27430725 C-0.11449199 253.97034404 -0.11135713 247.66639118 -0.10573006 241.36243057 C-0.09759958 232.24798628 -0.09499825 223.13354699 -0.09374207 214.01909946 C-0.09155398 199.23115461 -0.08490049 184.44321529 -0.07543945 169.65527344 C-0.06625904 155.29101591 -0.05918128 140.92675987 -0.05493164 126.5625 C-0.05466892 125.67693865 -0.05440619 124.79137731 -0.05413551 123.87898077 C-0.05283046 119.43633542 -0.05156676 114.99369007 -0.05032361 110.5510447 C-0.03995858 73.70069257 -0.02234688 36.85034672 0 0 Z " fill="#9410FA" transform="translate(316,466)"/>
<path d="M0 0 C0.99 0 1.98 0 3 0 C3.02279381 32.06926585 3.04049996 64.1385294 3.05106533 96.20780145 C3.05231609 99.9905851 3.05361041 103.77336872 3.05493164 107.55615234 C3.05519395 108.30926265 3.05545626 109.06237295 3.05572652 109.83830477 C3.06008237 122.04575808 3.06796945 134.2532067 3.0771528 146.46065722 C3.0864917 158.97894396 3.09205611 171.49722823 3.09408849 184.01551831 C3.09546323 191.74509071 3.09981115 199.47464985 3.10791647 207.20421816 C3.11380828 213.12302035 3.11445836 219.04181567 3.11310768 224.96062088 C3.11338401 227.39474316 3.11538914 229.82886592 3.11920547 232.26298523 C3.12414266 235.57287452 3.12299816 238.88270596 3.12025452 242.19259644 C3.12316736 243.16728972 3.1260802 244.14198301 3.12908131 245.14621246 C3.12709026 246.02801024 3.12509921 246.90980802 3.12304783 247.81832695 C3.12342755 248.5830837 3.12380727 249.34784044 3.1241985 250.13577163 C3 252 3 252 2 254 C1.34 254 0.68 254 0 254 C0 170.18 0 86.36 0 0 Z " fill="#2D76E5" transform="translate(683,433)"/>
<path d="M0 0 C1.16082596 0.00015106 2.32165192 0.00030212 3.51765442 0.00045776 C4.76052719 0.01078033 6.00339996 0.02110291 7.28393555 0.03173828 C9.20437935 0.03598312 9.20437935 0.03598312 11.16362 0.04031372 C14.55518505 0.04792298 17.9465768 0.06754785 21.33807373 0.08972168 C24.80372779 0.11023873 28.26941004 0.11932792 31.73510742 0.12939453 C38.52619796 0.15143587 45.31716042 0.18489949 52.1081543 0.22705078 C52.1081543 0.55705078 52.1081543 0.88705078 52.1081543 1.22705078 C51.06245773 1.23918106 51.06245773 1.23918106 49.99563599 1.2515564 C43.43270127 1.32942795 36.86996712 1.41669567 30.30729866 1.51457787 C26.93317926 1.56456976 23.5590916 1.61089915 20.18481445 1.64892578 C16.30750801 1.69442406 12.43056378 1.75244357 8.5534668 1.81298828 C6.73155319 1.83031509 6.73155319 1.83031509 4.87283325 1.84799194 C3.19131668 1.87779648 3.19131668 1.87779648 1.47583008 1.90820312 C0.48543732 1.92152679 -0.50495544 1.93485046 -1.52536011 1.94857788 C-4.07920266 2.00132524 -4.07920266 2.00132524 -5.8918457 4.22705078 C-6.8405957 4.61892578 -7.7893457 5.01080078 -8.7668457 5.41455078 C-12.69721213 7.69416331 -14.44698622 10.00329889 -15.8918457 14.22705078 C-16.46029544 18.98658188 -16.39821252 23.73064561 -16.34594727 28.51586914 C-16.34481779 29.96515878 -16.34545459 31.4144507 -16.34771729 32.86373901 C-16.34886149 36.78282344 -16.32540031 40.70141476 -16.29742146 44.62038493 C-16.2723585 48.72163416 -16.27006196 52.8228956 -16.26531982 56.92420959 C-16.25290438 64.68372353 -16.22010228 72.44301112 -16.17992187 80.20242554 C-16.13515948 89.03914709 -16.1132059 97.87587965 -16.09314013 106.71268642 C-16.05136828 124.88426936 -15.98104421 143.05564185 -15.8918457 161.22705078 C-16.2218457 161.22705078 -16.5518457 161.22705078 -16.8918457 161.22705078 C-17.02431382 147.00233203 -17.1547373 132.77759567 -17.28299713 118.55283833 C-17.34264842 111.94333886 -17.40288499 105.33384585 -17.46459961 98.72436523 C-17.47647308 97.44696032 -17.48834656 96.1695554 -17.50057983 94.85344124 C-17.52440265 92.29061838 -17.54834835 89.72779667 -17.57241821 87.16497612 C-17.63058225 80.86417755 -17.68282399 74.56342296 -17.72290039 68.26248169 C-17.73874604 65.82049492 -17.75469489 63.37850882 -17.77075195 60.93652344 C-17.77839569 59.75912157 -17.78603943 58.5817197 -17.79391479 57.36863899 C-17.84164947 51.0092015 -17.93586258 44.65405094 -18.09989166 38.29654789 C-18.18733326 34.8244809 -18.25033161 31.35221715 -18.30955505 27.8795681 C-18.34297732 26.33449665 -18.38886118 24.78963255 -18.44862366 23.24535561 C-18.93680587 10.57633746 -18.93680587 10.57633746 -14.67504883 5.39624023 C-10.32143031 1.08818649 -6.02279206 -0.0262431 0 0 Z " fill="#4B46D9" transform="translate(576.891845703125,518.77294921875)"/>
<path d="M0 0 C5.63572841 2.10937631 10.68229471 5.11790894 15.88134766 8.12011719 C17.5952884 9.10787693 19.31518093 10.08528607 21.03515625 11.0625 C48.04661007 26.6136029 67.70612432 47.75424868 77.1875 77.7578125 C77.94998223 80.80040985 78.14115134 82.14712165 77 85 C76.34 84.67 75.68 84.34 75 84 C74.49593499 82.11815728 74.0022759 80.23260501 73.57421875 78.33203125 C72.78771858 75.13787751 71.69259874 72.0758331 70.5859375 68.98046875 C70 67 70 67 70 64 C69.34 64 68.68 64 68 64 C67.49596232 62.70990357 66.99690074 61.41786211 66.5 60.125 C66.2215625 59.40570313 65.943125 58.68640625 65.65625 57.9453125 C65 56 65 56 65 54 C64.01 53.505 64.01 53.505 63 53 C60 48.5 60 48.5 60 46 C59.01 45.67 58.02 45.34 57 45 C57 44.01 57 43.02 57 42 C56.01 41.67 55.02 41.34 54 41 C52.78125 39.43359375 52.78125 39.43359375 51.5 37.4375 C48.22290493 32.85121368 44.21873279 29.99981326 39.5859375 26.859375 C37 25 37 25 34.8515625 22.828125 C33.03636578 20.7668399 33.03636578 20.7668399 30 20 C30 19.34 30 18.68 30 18 C28.35 17.67 26.7 17.34 25 17 C25 16.34 25 15.68 25 15 C24.15824219 14.75378906 23.31648437 14.50757813 22.44921875 14.25390625 C18.6018394 12.85525532 15.31504371 11.0270645 11.8125 8.9375 C7.08109198 6.11129079 7.08109198 6.11129079 2 4 C0.8125 1.9375 0.8125 1.9375 0 0 Z " fill="#07A8E3" transform="translate(859,373)"/>
<path d="M0 0 C-1.44653468 3.60078256 -3.12696183 5.00751145 -6.375 7.0625 C-31.53864489 24.07964115 -48.18417541 49.705142 -58 78 C-58.66 78 -59.32 78 -60 78 C-56.28510497 51.91834111 -34.79053522 24.1843163 -14.31884766 8.73095703 C-12.43041423 7.32788021 -10.53123595 5.94128349 -8.625 4.5625 C-8.00536377 4.11261719 -7.38572754 3.66273438 -6.74731445 3.19921875 C-2.24344535 0 -2.24344535 0 0 0 Z " fill="#2E7EEA" transform="translate(723,693)"/>
<path d="M0 0 C0.33 0 0.66 0 1 0 C1 69.63 1 139.26 1 211 C-0.32 210.67 -1.64 210.34 -3 210 C-2.01 209.01 -2.01 209.01 -1 208 C-0.79442447 205.2550641 -0.71491305 202.60980708 -0.7215271 199.86300659 C-0.7128385 198.58637498 -0.7128385 198.58637498 -0.70397437 197.28395283 C-0.68689107 194.41566389 -0.68409074 191.54753503 -0.68115234 188.67919922 C-0.67185991 186.62966514 -0.66169227 184.58013486 -0.65071106 182.53060913 C-0.6233198 176.95240117 -0.6082347 171.37421858 -0.59528303 165.7959609 C-0.57969229 159.97162037 -0.55288924 154.14733198 -0.5272522 148.32302856 C-0.48039236 137.2874993 -0.44368319 126.25196031 -0.41057932 115.21638215 C-0.37240874 102.65547849 -0.32298539 90.09462711 -0.27259517 77.53376746 C-0.16916818 51.68921701 -0.0799429 25.844633 0 0 Z " fill="#18A7FE" transform="translate(766,436)"/>
<path d="M0 0 C3.39076125 3.44613779 4.46002381 5.87531875 4.51632524 10.72299081 C4.50467387 11.46327057 4.4930225 12.20355034 4.48101807 12.96626282 C4.48443577 13.7627441 4.48785347 14.55922538 4.49137473 15.37984246 C4.49795741 18.04566934 4.47597171 20.71048677 4.45410156 23.3762207 C4.45297317 25.28826371 4.45360679 27.20030846 4.45587158 29.11235046 C4.45701996 34.30212323 4.43349043 39.49152672 4.40557575 44.68121362 C4.38058285 50.10509895 4.37822176 55.5289926 4.37347412 60.95292664 C4.36103816 71.22347235 4.32820806 81.49384789 4.28807616 91.76431865 C4.24337784 103.4570539 4.22137627 115.14979724 4.20129442 126.84259665 C4.15947605 150.8951588 4.08911184 174.94756987 4 199 C3.67 199 3.34 199 3 199 C3 135.31 3 71.62 3 6 C2.34 6 1.68 6 1 6 C0.67 4.02 0.34 2.04 0 0 Z " fill="#5A34C2" transform="translate(513,624)"/>
<path d="M0 0 C0.33 0 0.66 0 1 0 C1 63.69 1 127.38 1 193 C-0.65 192.34 -2.3 191.68 -4 191 C-3.01 190.67 -2.02 190.34 -1 190 C-0.67 127.3 -0.34 64.6 0 0 Z " fill="#7242FF" transform="translate(515,630)"/>
<path d="M0 0 C7.85835827 3.67956069 15.23202023 8.05699057 22.63232422 12.56152344 C27.2873235 15.3896587 31.95611241 18.19487131 36.625 21 C37.68195068 21.63526611 38.73890137 22.27053223 39.82788086 22.92504883 C48.6661394 28.22538618 57.55546282 33.43497854 66.45523071 38.631073 C78.39502181 45.60593714 90.22103138 52.75636101 102 60 C100.515 60.495 100.515 60.495 99 61 C97.64664105 60.02727325 96.31337396 59.0260734 95 58 C94.01 58 93.02 58 92 58 C91.4225 57.401875 90.845 56.80375 90.25 56.1875 C88.13507955 54.13132734 86.9628795 53.4318998 84.3125 52.375 C81 51 81 51 80 49 C76.43410312 47.05496534 72.79172433 45.44977695 69 44 C69 43.34 69 42.68 69 42 C67.97326172 41.61714844 67.97326172 41.61714844 66.92578125 41.2265625 C63.55038274 39.81150892 60.40025962 38.12741434 57.1875 36.375 C56.59001953 36.05015625 55.99253906 35.7253125 55.37695312 35.390625 C53.91662865 34.59620849 52.45812509 33.79844624 51 33 C51 32.34 51 31.68 51 31 C50.154375 30.7525 49.30875 30.505 48.4375 30.25 C44.60244908 28.85543603 41.50886659 27.07932835 38 25 C36.67353844 24.3197633 35.34391123 23.64507739 34 23 C34 22.34 34 21.68 34 21 C33.41605469 20.88140625 32.83210937 20.7628125 32.23046875 20.640625 C29.89831722 19.97079514 28.32845876 19.08551985 26.3125 17.75 C23.42573578 15.88618934 20.51635135 14.14622975 17.5 12.5 C14.51160546 10.86668781 11.61708816 9.15023884 8.75 7.3125 C5.92387049 5.51508163 3.18353614 4.09434055 0 3 C0 2.01 0 1.02 0 0 Z " fill="#3E87F0" transform="translate(740,302)"/>
<path d="M0 0 C-1.57509248 4.42075957 -5.06772258 6.87452832 -8.625 9.6875 C-9.62382202 10.47870239 -9.62382202 10.47870239 -10.64282227 11.28588867 C-28.38793819 24.99264703 -57.12096403 40.59621181 -80 39 C-79.0409375 38.8453125 -79.0409375 38.8453125 -78.0625 38.6875 C-77.0415625 38.3471875 -77.0415625 38.3471875 -76 38 C-75.67 37.01 -75.34 36.02 -75 35 C-73.02 35.33 -71.04 35.66 -69 36 C-69 35.34 -69 34.68 -69 34 C-67.824375 33.87625 -66.64875 33.7525 -65.4375 33.625 C-58.21221674 32.69026056 -52.09023676 30.23820338 -45.55078125 27.12109375 C-41.79899125 25.4721447 -38.01022988 24.77976692 -34 24 C-34 23.34 -34 22.68 -34 22 C-32.04414675 20.99515796 -30.08523763 19.99626195 -28.125 19 C-27.03445313 18.443125 -25.94390625 17.88625 -24.8203125 17.3125 C-22 16 -22 16 -20 16 C-20 15.34 -20 14.68 -20 14 C-18.36246017 12.68523023 -16.66237727 11.44789592 -14.9375 10.25 C-11.46004115 7.79426875 -8.11813867 5.33022933 -4.9375 2.5 C-2 0 -2 0 0 0 Z " fill="#03CEF6" transform="translate(885,908)"/>
<path d="M0 0 C1.65 0 3.3 0 5 0 C3.86801039 32.54470125 -10.78526523 63.54421859 -33 87 C-33.33 86.01 -33.66 85.02 -34 84 C-33.195625 83.236875 -32.39125 82.47375 -31.5625 81.6875 C-28.83200976 79.20569102 -28.83200976 79.20569102 -28 76 C-27.34 76 -26.68 76 -26 76 C-26 75.01 -26 74.02 -26 73 C-24.35511706 71.31183067 -22.68662458 69.64646685 -21 68 C-20.30419733 66.68163705 -19.62775567 65.35208914 -19 64 C-18.01 63.505 -18.01 63.505 -17 63 C-16.7834375 61.824375 -16.7834375 61.824375 -16.5625 60.625 C-15.91637957 57.60977133 -15.13224683 57.09548395 -13 55 C-9.70157982 49.56952115 -5 41.39364228 -5 35 C-4.34 35 -3.68 35 -3 35 C-3.0928125 33.7625 -3.0928125 33.7625 -3.1875 32.5 C-3.00140161 29.02616337 -2.09949612 26.65938203 -0.796875 23.4765625 C0.57607314 19.20965504 1.00737224 14.80157658 1.5703125 10.3671875 C1.97092361 7.22785317 2.45980503 4.11796745 3 1 C2.01 0.67 1.02 0.34 0 0 Z " fill="#01D5EC" transform="translate(921,820)"/>
<path d="M0 0 C0.99 0.495 0.99 0.495 2 1 C-3.26169891 6.61136877 -10.35794145 10.25629427 -17 14 C-18.17076842 14.72256241 -19.33714242 15.45227392 -20.5 16.1875 C-45.77352234 32.08773542 -45.77352234 32.08773542 -56 36 C-56 36.66 -56 37.32 -56 38 C-57.70192385 38.9902653 -59.41188011 39.96673206 -61.125 40.9375 C-62.07632812 41.48277344 -63.02765625 42.02804687 -64.0078125 42.58984375 C-67.06256432 44.02948527 -69.66134387 44.60867384 -73 45 C-69.04646143 41.64825247 -64.91161368 39.06869459 -60.4375 36.5 C-58.91097317 35.61281343 -57.38495213 34.72475615 -55.859375 33.8359375 C-55.06337891 33.3728418 -54.26738281 32.90974609 -53.44726562 32.43261719 C-49.34131635 30.0290148 -45.26439682 27.57745824 -41.1875 25.125 C-40.35863281 24.62653564 -39.52976562 24.12807129 -38.67578125 23.61450195 C-36.97975665 22.59450257 -35.28379352 21.57440094 -33.58789062 20.55419922 C-30.95159485 18.97092951 -28.31218874 17.3929652 -25.671875 15.81640625 C-23.92704128 14.77350786 -22.18224888 13.73054033 -20.4375 12.6875 C-19.60259033 12.18919678 -18.76768066 11.69089355 -17.9074707 11.17749023 C-12.47545987 7.92307685 -7.14380594 4.56102957 -1.8984375 1.01171875 C-1.27195312 0.67785156 -0.64546875 0.34398437 0 0 Z " fill="#7A21E7" transform="translate(509,305)"/>
<path d="M0 0 C0.33 0 0.66 0 1 0 C1.15255984 5.84370508 0.63805068 11.19956219 -0.4375 16.9375 C-0.57220703 17.70384766 -0.70691406 18.47019531 -0.84570312 19.25976562 C-1.86314597 24.86314597 -1.86314597 24.86314597 -3 26 C-3.1025891 28.90568529 -3.1413772 31.78179556 -3.125 34.6875 C-3.12089111 35.55020508 -3.11678223 36.41291016 -3.11254883 37.30175781 C-3.1472384 66.71836755 -3.1472384 66.71836755 8 93 C8.04063832 94.66617115 8.042721 96.33388095 8 98 C4.49313488 94.49313488 3.59899582 89.45018005 2.0625 84.8125 C1.54139648 83.2975293 1.54139648 83.2975293 1.00976562 81.75195312 C-3.72396069 67.56860366 -5.57710214 54.21401463 -5.5 39.375 C-5.50056396 38.59394897 -5.50112793 37.81289795 -5.50170898 37.00817871 C-5.48196256 24.13153718 -4.04078243 12.29552368 0 0 Z " fill="#2F77E5" transform="translate(662,771)"/>
<path d="M0 0 C5.46393612 1.52017301 9.89033934 4.1361906 14.6875 7.0625 C16.18986608 7.97259942 17.69371376 8.88025873 19.19921875 9.78515625 C19.85752686 10.18613525 20.51583496 10.58711426 21.1940918 11.00024414 C23.13472844 12.14647641 23.13472844 12.14647641 26 13 C26 13.66 26 14.32 26 15 C26.71542969 15.27585937 27.43085937 15.55171875 28.16796875 15.8359375 C30.95738855 16.98248522 33.62290358 18.26227115 36.3125 19.625 C37.19550781 20.07101562 38.07851563 20.51703125 38.98828125 20.9765625 C39.65214844 21.31429688 40.31601562 21.65203125 41 22 C41 22.66 41 23.32 41 24 C41.72316406 24.25394531 42.44632813 24.50789063 43.19140625 24.76953125 C55.78996549 30.28906694 63.98807274 42.31904508 69.078125 54.6015625 C71.17866954 60.46399137 71.17866954 60.46399137 70 64 C69.34 64 68.68 64 68 64 C67.78085937 63.18917969 67.56171875 62.37835938 67.3359375 61.54296875 C61.8723598 42.46486612 51.6707436 30.87235836 34.62982178 21.41729736 C34.00948059 21.07333923 33.3891394 20.7293811 32.75 20.375 C31.46002225 19.64170434 30.17112841 18.9064988 28.88330078 18.16943359 C26.38192473 16.73992293 23.87644652 15.31819018 21.36621094 13.90429688 C17.17018427 11.53056552 13.01223063 9.09943556 8.875 6.625 C7.77929688 5.97789062 6.68359375 5.33078125 5.5546875 4.6640625 C3.38407375 3.25017648 1.71263665 1.92523982 0 0 Z " fill="#1E9CE6" transform="translate(825,405)"/>
<path d="M0 0 C11.88 0 23.76 0 36 0 C36 0.33 36 0.66 36 1 C19.665 1.495 19.665 1.495 3 2 C1.700625 7.07375 1.700625 7.07375 0.375 12.25 C-3.00142762 24.87900456 -7.65456357 35.74027531 -16 46 C-16.99 46.495 -16.99 46.495 -18 47 C-16.42686783 42.73470351 -14.3201533 38.84158271 -12.125 34.875 C-8.79468704 28.74411157 -6.14728256 22.65032171 -4 16 C-3.71382812 15.19820312 -3.42765625 14.39640625 -3.1328125 13.5703125 C-1.47194473 8.87242938 -0.73047356 5.11331493 0 0 Z " fill="#01C2E5" transform="translate(884,820)"/>
<path d="M0 0 C2.03169801 3.04754702 2.43666458 4.59409406 3 8.125 C3.61338647 11.74302177 4.23793885 15.34747755 5 18.9375 C5.144375 19.62714844 5.28875 20.31679688 5.4375 21.02734375 C5.94351036 23.06148571 5.94351036 23.06148571 7.0625 25.00390625 C8 27 8 27 8 31 C8.66 31.33 9.32 31.66 10 32 C11.05685854 33.73749841 12.04791976 35.51544855 13 37.3125 C13.7734375 38.76076172 13.7734375 38.76076172 14.5625 40.23828125 C15.73047181 42.48218361 16.87952433 44.73211416 18 47 C18.66 47 19.32 47 20 47 C20.66 49.31 21.32 51.62 22 54 C8.66812567 41.4782222 0.5607479 21.89984396 -1.01953125 3.890625 C-1 2 -1 2 0 0 Z " fill="#810CDE" transform="translate(317,757)"/>
<path d="M0 0 C0.66015625 1.75390625 0.66015625 1.75390625 1 4 C-0.00390625 5.90234375 -0.00390625 5.90234375 -1.5625 7.9375 C-9.33818759 18.93196059 -13.45293606 31.35918226 -15.47265625 44.5546875 C-15.99666408 46.9845312 -16.78958448 48.84033746 -18 51 C-19.70881129 44.16475482 -17.96222288 38.64200131 -16 32 C-15.74347656 31.04996094 -15.48695313 30.09992188 -15.22265625 29.12109375 C-12.17371409 18.79403159 -6.73994262 8.44107829 0 0 Z " fill="#830DDF" transform="translate(335,418)"/>
<path d="M0 0 C2.97 0.99 5.94 1.98 9 3 C9 3.66 9 4.32 9 5 C9.69480469 5.26554688 10.38960937 5.53109375 11.10546875 5.8046875 C14.25676076 7.10603076 17.27000171 8.58703383 20.3125 10.125 C21.38113281 10.66382813 22.44976563 11.20265625 23.55078125 11.7578125 C24.76314453 12.37269531 24.76314453 12.37269531 26 13 C26 13.66 26 14.32 26 15 C26.86625 15.268125 27.7325 15.53625 28.625 15.8125 C32.6156208 17.21660732 36.28076538 19.00173474 39.9375 21.125 C42.88190242 22.37414042 45.83986807 22.63536939 49 23 C49.33 22.34 49.66 21.68 50 21 C50.495 22.98 50.495 22.98 51 25 C42.75160439 26.19014927 38.01874227 24.35843723 31.23046875 19.76953125 C24.88069619 15.493486 18.10912651 11.86684001 11.44528198 8.10665894 C9.73685391 7.1409873 8.0324074 6.16828201 6.328125 5.1953125 C5.3268457 4.62828613 4.32556641 4.06125977 3.29394531 3.47705078 C1 2 1 2 0 0 Z " fill="#3D71E9" transform="translate(602,873)"/>
<path d="M0 0 C0.66 0.33 1.32 0.66 2 1 C1.401875 2.051875 0.80375 3.10375 0.1875 4.1875 C-2.27052444 9.0338177 -3.29831586 14.04376041 -4.38671875 19.33984375 C-5 22 -5 22 -6 23 C-6.12330088 24.8096774 -6.17790183 26.62407837 -6.20532227 28.43774414 C-6.22526749 29.59887222 -6.24521271 30.76000031 -6.26576233 31.95631409 C-6.28247482 33.219832 -6.29918732 34.48334991 -6.31640625 35.78515625 C-6.33718735 37.07111191 -6.35796844 38.35706757 -6.37937927 39.68199158 C-6.43466176 43.10635904 -6.48404361 46.5307875 -6.53222656 49.95526123 C-6.58239665 53.44744314 -6.6381061 56.9395361 -6.69335938 60.43164062 C-6.8010164 67.28768333 -6.90244449 74.14380633 -7 81 C-7.33 81 -7.66 81 -8 81 C-8.09335842 73.27120329 -8.16409439 65.54254275 -8.20724869 57.81332111 C-8.22797799 54.22291729 -8.25602042 50.63290385 -8.30175781 47.04272461 C-8.3457481 43.56728053 -8.36924676 40.09220794 -8.37950897 36.61650658 C-8.39031783 34.6686361 -8.42145527 32.72091166 -8.45318604 30.77326965 C-8.45596195 19.56129681 -6.16082696 9.46126997 0 0 Z " fill="#9610FE" transform="translate(366,450)"/>
<path d="M0 0 C0.33 0 0.66 0 1 0 C1 3.63 1 7.26 1 11 C2.32 11.66 3.64 12.32 5 13 C5 13.66 5 14.32 5 15 C5.8971875 15.1546875 5.8971875 15.1546875 6.8125 15.3125 C9.33391022 16.10494321 10.19465768 17.11943508 12 19 C12.9590625 19.4640625 12.9590625 19.4640625 13.9375 19.9375 C16.45916314 21.23653859 18.03449401 22.9710906 20 25 C20.99 25.66 21.98 26.32 23 27 C23 27.66 23 28.32 23 29 C23.556875 29.061875 24.11375 29.12375 24.6875 29.1875 C28.00086472 30.35165517 29.70475296 32.39458444 32 35 C32.33 35.99 32.66 36.98 33 38 C33.99 38.33 34.98 38.66 36 39 C37.1875 42.0625 37.1875 42.0625 38 45 C37.31679688 44.31164062 36.63359375 43.62328125 35.9296875 42.9140625 C24.93428463 31.93409178 13.5812232 21.99116533 0.59375 13.41015625 C-1 12 -1 12 -1.3125 8.625 C-1.05686666 5.65965324 -0.70007296 2.88780095 0 0 Z " fill="#03C5ED" transform="translate(896,635)"/>
<path d="M0 0 C1.65 0 3.3 0 5 0 C4.52116353 13.76654847 1.36600218 26.53974027 -3.125 39.5 C-3.37854248 40.23637695 -3.63208496 40.97275391 -3.89331055 41.73144531 C-5.74870123 46.87435061 -5.74870123 46.87435061 -8 48 C-7.17812739 43.61667943 -6.09845718 39.32059823 -5 35 C-4.34 35 -3.68 35 -3 35 C-3.0928125 33.7625 -3.0928125 33.7625 -3.1875 32.5 C-3.00140161 29.02616337 -2.09949612 26.65938203 -0.796875 23.4765625 C0.57607314 19.20965504 1.00737224 14.80157658 1.5703125 10.3671875 C1.97092361 7.22785317 2.45980503 4.11796745 3 1 C2.01 0.67 1.02 0.34 0 0 Z " fill="#02DFF6" transform="translate(921,820)"/>
<path d="M0 0 C0.66 0.33 1.32 0.66 2 1 C-3.26169891 6.61136877 -10.35794145 10.25629427 -17 14 C-19.07702177 15.30247376 -21.14382684 16.61891214 -23.203125 17.94921875 C-25 19 -25 19 -28 20 C-28.66 19.34 -29.32 18.68 -30 18 C-29.00742187 17.45472656 -28.01484375 16.90945313 -26.9921875 16.34765625 C-19.24475597 12.05674159 -11.65795401 7.65890977 -4.34326172 2.65649414 C-2.93245678 1.71324041 -1.47006167 0.84794861 0 0 Z " fill="#7325E3" transform="translate(509,305)"/>
<path d="M0 0 C5.0610345 0.54366582 8.74582947 2.97071959 13 5.5625 C13.74241943 6.00851562 14.48483887 6.45453125 15.24975586 6.9140625 C16.7672833 7.82760458 18.2828363 8.74443459 19.79638672 9.66455078 C21.85775405 10.91379511 23.92864662 12.14511185 26.00390625 13.37109375 C27.19048301 14.08009552 28.37670329 14.78969437 29.5625 15.5 C30.61566406 16.1290625 31.66882813 16.758125 32.75390625 17.40625 C33.49511719 17.9321875 34.23632812 18.458125 35 19 C35 19.66 35 20.32 35 21 C31.44047152 19.66323905 28.24672254 18.07939665 24.98046875 16.13671875 C24.04009766 15.57919922 23.09972656 15.02167969 22.13085938 14.44726562 C20.67389648 13.57618164 20.67389648 13.57618164 19.1875 12.6875 C18.22779297 12.11837891 17.26808594 11.54925781 16.27929688 10.96289062 C13.51344049 9.31848045 10.75461919 7.6631567 8 6 C7.18096191 5.50580566 6.36192383 5.01161133 5.51806641 4.50244141 C3.66020109 3.36464721 1.82686889 2.18692428 0 1 C0 0.67 0 0.34 0 0 Z " fill="#3C78E1" transform="translate(751,361)"/>
<path d="M0 0 C1 3 1 3 -0.22265625 5.79296875 C-0.82980469 6.91316406 -1.43695312 8.03335938 -2.0625 9.1875 C-6.11345813 16.87045786 -9.10167115 24.82522631 -12 33 C-12.66 33 -13.32 33 -14 33 C-12.27556236 20.8018727 -6.27045333 10.37814485 0 0 Z " fill="#3075E7" transform="translate(677,738)"/>
<path d="M0 0 C9.29805122 4.10739156 16.11154563 7.64082406 19.9375 17.375 C21.71491435 23.54862261 20.99225827 28.73765115 18.4375 34.5625 C17.963125 35.366875 17.48875 36.17125 17 37 C16.67 35.68 16.34 34.36 16 33 C16.66 33 17.32 33 18 33 C18.7638348 21.30416848 18.7638348 21.30416848 14 11 C10.0351294 7.0351294 4.91947306 4.61514472 0 2 C0 1.34 0 0.68 0 0 Z " fill="#3772E0" transform="translate(622,931)"/>
<path d="M0 0 C-1.31575809 2.98817588 -2.61850935 4.80002511 -5.16015625 6.83984375 C-5.785271 7.34354492 -6.41038574 7.84724609 -7.05444336 8.36621094 C-7.71710205 8.88473633 -8.37976074 9.40326172 -9.0625 9.9375 C-9.73482666 10.47020508 -10.40715332 11.00291016 -11.09985352 11.55175781 C-15.83859902 15.24623792 -20.59461284 18.3447221 -26 21 C-26.66 20.34 -27.32 19.68 -28 19 C-22.25 16 -22.25 16 -20 16 C-20 15.34 -20 14.68 -20 14 C-18.36246017 12.68523023 -16.66237727 11.44789592 -14.9375 10.25 C-11.46004115 7.79426875 -8.11813867 5.33022933 -4.9375 2.5 C-2 0 -2 0 0 0 Z " fill="#01CBE6" transform="translate(885,908)"/>
<path d="M0 0 C4.80276729 1.39316914 8.84026925 3.50474468 13.0625 6.125 C13.70646729 6.5180835 14.35043457 6.91116699 15.01391602 7.31616211 C17.01292175 8.53827986 19.00664363 9.76869428 21 11 C22.28879188 11.79080578 23.57784694 12.58118285 24.8671875 13.37109375 C27.91560868 15.24070503 30.95916596 17.1180673 34 19 C33.01 19.33 32.02 19.66 31 20 C29.64664105 19.02727325 28.31337396 18.0260734 27 17 C26.01 17 25.02 17 24 17 C23.4225 16.401875 22.845 15.80375 22.25 15.1875 C20.13507955 13.13132734 18.9628795 12.4318998 16.3125 11.375 C13 10 13 10 12 8 C9.11488948 6.42630335 6.2847768 5.10125398 3.1875 4 C2.465625 3.67 1.74375 3.34 1 3 C0.67 2.01 0.34 1.02 0 0 Z " fill="#319AF4" transform="translate(808,343)"/>
<path d="M0 0 C5.50070274 2.19316812 7.42622568 6.93525375 10 12 C12.21412472 17.23846543 13.98435441 22.39886541 15 28 C14.01 28 13.02 28 12 28 C11.78085937 27.18917969 11.56171875 26.37835938 11.3359375 25.54296875 C9.09049574 17.70217822 6.10334183 11.02257645 2 4 C1.32167922 2.67255767 0.65051015 1.34128997 0 0 Z " fill="#0BACE9" transform="translate(881,441)"/>
<path d="M0 0 C4.55669664 0.54510016 7.80592554 2.52731808 11.5625 5 C14.99088254 7.24118264 17.99906293 9.019464 22 10 C23.03267062 10.96622533 24.02990559 11.97096315 25 13 C26.54080126 14.09372939 28.10481211 15.15531225 29.6875 16.1875 C30.89986328 16.98220703 30.89986328 16.98220703 32.13671875 17.79296875 C32.75160156 18.19128906 33.36648438 18.58960938 34 19 C33.01 19.495 33.01 19.495 32 20 C29.91210938 19.01538086 29.91210938 19.01538086 27.34375 17.46484375 C26.40273438 16.90216797 25.46171875 16.33949219 24.4921875 15.75976562 C23.50476563 15.15841797 22.51734375 14.55707031 21.5 13.9375 C20.54351563 13.36322266 19.58703125 12.78894531 18.6015625 12.19726562 C16.68353128 11.04462762 14.76814573 9.88757536 12.85546875 8.72607422 C10.92717521 7.56045902 8.99205221 6.40607845 7.05078125 5.26220703 C6.13683594 4.72321777 5.22289062 4.18422852 4.28125 3.62890625 C3.0447168 2.90489624 3.0447168 2.90489624 1.78320312 2.16625977 C1.19474609 1.78139404 0.60628906 1.39652832 0 1 C0 0.67 0 0.34 0 0 Z " fill="#3183E0" transform="translate(791,385)"/>
<path d="M0 0 C5.8026451 2.16203199 11.0297263 5.31129754 16.37573242 8.39477539 C18.18836741 9.43799922 20.00703478 10.47011953 21.82617188 11.50195312 C23.54223633 12.48905273 23.54223633 12.48905273 25.29296875 13.49609375 C26.3399292 14.09607178 27.38688965 14.6960498 28.46557617 15.31420898 C31 17 31 17 33 20 C32.01 20 31.02 20 30 20 C30 19.34 30 18.68 30 18 C28.35 17.67 26.7 17.34 25 17 C25 16.34 25 15.68 25 15 C24.15824219 14.75378906 23.31648437 14.50757813 22.44921875 14.25390625 C18.6018394 12.85525532 15.31504371 11.0270645 11.8125 8.9375 C7.08109198 6.11129079 7.08109198 6.11129079 2 4 C0.8125 1.9375 0.8125 1.9375 0 0 Z " fill="#19A7EE" transform="translate(859,373)"/>
<path d="M0 0 C0.99 0.495 0.99 0.495 2 1 C2 2.32 2 3.64 2 5 C2.66 5.33 3.32 5.66 4 6 C5.05685854 7.73749841 6.04791976 9.51544855 7 11.3125 C7.7734375 12.76076172 7.7734375 12.76076172 8.5625 14.23828125 C9.73047181 16.48218361 10.87952433 18.73211416 12 21 C12.66 21 13.32 21 14 21 C14.66 23.31 15.32 25.62 16 28 C12.23475827 24.47746549 9.55238687 21.01956167 6.875 16.5625 C5.88113281 14.92474609 5.88113281 14.92474609 4.8671875 13.25390625 C0 4.77196653 0 4.77196653 0 0 Z " fill="#870FEC" transform="translate(323,783)"/>
<path d="M0 0 C-1.24735567 0.6509259 -2.49801832 1.29551669 -3.75 1.9375 C-4.44609375 2.29714844 -5.1421875 2.65679688 -5.859375 3.02734375 C-11.75490733 5.70615315 -19.05763225 6.16509837 -25.2734375 4.328125 C-27.1875 3.5 -27.1875 3.5 -30 2 C-28.3125 0.875 -28.3125 0.875 -26 0 C-24.9171875 0.4640625 -24.9171875 0.4640625 -23.8125 0.9375 C-20.29800251 2.26519905 -17.43285362 2.19500661 -13.6875 2.125 C-12.43324219 2.10695313 -11.17898438 2.08890625 -9.88671875 2.0703125 C-8.93410156 2.04710937 -7.98148438 2.02390625 -7 2 C-7 1.34 -7 0.68 -7 0 C-3.98968256 -0.93423645 -3.13349732 -1.04449911 0 0 Z " fill="#3C67DA" transform="translate(635,973)"/>
<path d="M0 0 C0.66 0 1.32 0 2 0 C1.4807728 5.0191963 0.59750359 9.20748923 -1 14 C-1.74493188 17.65371348 -2.38488615 21.32240441 -3 25 C-5.94749504 20.57875744 -4.97240199 17.07961041 -4 12 C-2.8215226 7.9397398 -1.46482354 3.96524326 0 0 Z " fill="#8B0CE8" transform="translate(321,444)"/>
<path d="M0 0 C0.66 0 1.32 0 2 0 C2.96380382 2.18522816 3.92109439 4.37295386 4.875 6.5625 C5.14441406 7.17158203 5.41382813 7.78066406 5.69140625 8.40820312 C10.30222039 19.03556743 10.30222039 19.03556743 9.625 23.4375 C9.41875 23.953125 9.2125 24.46875 9 25 C8.34 24.67 7.68 24.34 7 24 C6.49593499 22.11815728 6.0022759 20.23260501 5.57421875 18.33203125 C4.78771858 15.13787751 3.69259874 12.0758331 2.5859375 8.98046875 C2 7 2 7 2 4 C1.34 4 0.68 4 0 4 C0 2.68 0 1.36 0 0 Z " fill="#05B4E9" transform="translate(927,433)"/>
<path d="M0 0 C-0.639375 0.103125 -1.27875 0.20625 -1.9375 0.3125 C-2.618125 0.539375 -3.29875 0.76625 -4 1 C-4.33 1.99 -4.66 2.98 -5 4 C-5.99 4.33 -6.98 4.66 -8 5 C-8.65355469 5.26039063 -9.30710937 5.52078125 -9.98046875 5.7890625 C-15.50996564 7.88342062 -19.20140317 8.15971937 -25 7 C-22.0812429 5.05416193 -19.83361526 4.41614931 -16.46484375 3.64453125 C-12.4072785 2.58351973 -8.48527533 1.12067458 -4.5390625 -0.29296875 C-2 -1 -2 -1 0 0 Z " fill="#011524" transform="translate(841,939)"/>
<path d="M0 0 C0.33 0 0.66 0 1 0 C1 12.87 1 25.74 1 39 C-0.65 38.34 -2.3 37.68 -4 37 C-2.515 36.505 -2.515 36.505 -1 36 C-0.67 24.12 -0.34 12.24 0 0 Z " fill="#6D47FE" transform="translate(515,784)"/>
<path d="M0 0 C0.66 0.66 1.32 1.32 2 2 C1.443125 3.03125 0.88625 4.0625 0.3125 5.125 C-2.73299973 11.17233638 -4.80911021 17.60691177 -7 24 C-7.66 23.34 -8.32 22.68 -9 22 C-8.6046932 18.31674457 -7.34549646 15.09394304 -5.9375 11.6875 C-5.57527344 10.80449219 -5.21304688 9.92148437 -4.83984375 9.01171875 C-4.42412109 8.01591797 -4.42412109 8.01591797 -4 7 C-3.34 7 -2.68 7 -2 7 C-1.855625 6.030625 -1.71125 5.06125 -1.5625 4.0625 C-1 1 -1 1 0 0 Z " fill="#2987F0" transform="translate(710,762)"/>
<path d="M0 0 C6.19943388 2.90279375 12.13046224 6.17481501 18 9.6875 C18.6587915 10.07993896 19.31758301 10.47237793 19.99633789 10.87670898 C22.57170141 12.43263686 24.86413082 13.86413082 27 16 C20.10449586 16 13.76811381 10.41163382 8.12109375 6.83984375 C5.44328333 5.2613097 2.91669491 4.0482721 0 3 C0 2.01 0 1.02 0 0 Z " fill="#4775E7" transform="translate(740,302)"/>
<path d="M0 0 C-0.97920598 2.44801496 -1.57968441 3.74781064 -3.875 5.125 C-4.926875 5.558125 -4.926875 5.558125 -6 6 C-6.680625 6.37125 -7.36125 6.7425 -8.0625 7.125 C-10 8 -10 8 -13 8 C-13.33 8.99 -13.66 9.98 -14 11 C-17.0625 12.6875 -17.0625 12.6875 -20 14 C-20.66 13.34 -21.32 12.68 -22 12 C-18.71262589 9.99287794 -15.41942172 7.99552966 -12.125 6 C-11.18785156 5.42765625 -10.25070312 4.8553125 -9.28515625 4.265625 C-8.38925781 3.72421875 -7.49335937 3.1828125 -6.5703125 2.625 C-5.74289551 2.12226563 -4.91547852 1.61953125 -4.06298828 1.1015625 C-2 0 -2 0 0 0 Z " fill="#6B2BDA" transform="translate(548,283)"/>
<path d="M0 0 C0 0.33 0 0.66 0 1 C-9.90857976 3.29344655 -19.87929173 3.60146434 -30 4 C-22.21180221 -1.19213186 -9.06277458 -0.30378015 0 0 Z " fill="#5837C3" transform="translate(633,250)"/>
<path d="M0 0 C3.96 0 7.92 0 12 0 C9.3144406 2.6855594 6.62378672 3.06049974 3 4 C2.95101562 4.63808594 2.90203125 5.27617188 2.8515625 5.93359375 C2.77679687 6.75988281 2.70203125 7.58617187 2.625 8.4375 C2.52058594 9.67306641 2.52058594 9.67306641 2.4140625 10.93359375 C2.27742187 11.61550781 2.14078125 12.29742188 2 13 C1.01 13.495 1.01 13.495 0 14 C0 9.38 0 4.76 0 0 Z " fill="#08AAF1" transform="translate(814,662)"/>
<path d="M0 0 C4.97004324 0.54795448 8.52937292 2.86034849 12.6875 5.4375 C13.36361328 5.84548828 14.03972656 6.25347656 14.73632812 6.67382812 C17.38927078 8.29199116 19.79481382 9.79481382 22 12 C17.87239472 12 17.18747408 11.76011396 14 9.5625 C11.33105791 7.73281509 9.18920419 6.61933206 6 6 C6 5.34 6 4.68 6 4 C5.195625 3.71125 4.39125 3.4225 3.5625 3.125 C1 2 1 2 0 0 Z " fill="#416BE4" transform="translate(600,919)"/>
<path d="M0 0 C0.33 0.66 0.66 1.32 1 2 C1.99 2.33 2.98 2.66 4 3 C-9.6332574 6.44419134 -9.6332574 6.44419134 -16 6 C-15.360625 5.896875 -14.72125 5.79375 -14.0625 5.6875 C-13.381875 5.460625 -12.70125 5.23375 -12 5 C-11.67 4.01 -11.34 3.02 -11 2 C-8.03 2.495 -8.03 2.495 -5 3 C-5 2.34 -5 1.68 -5 1 C-3.35 0.67 -1.7 0.34 0 0 Z " fill="#04BCEB" transform="translate(821,941)"/>
<path d="M0 0 C11.88 0 23.76 0 36 0 C36 0.33 36 0.66 36 1 C35.01080566 1.01458252 34.02161133 1.02916504 33.00244141 1.04418945 C29.33817081 1.1020897 25.67452015 1.17932152 22.01074219 1.26245117 C20.42393035 1.2957398 18.83699897 1.32375947 17.25 1.34643555 C14.97083516 1.37991078 12.69276959 1.4322186 10.4140625 1.48828125 C9.70255035 1.49467117 8.99103821 1.5010611 8.25796509 1.50764465 C6.0399544 1.54009648 6.0399544 1.54009648 3 2 C2.01 3.485 2.01 3.485 1 5 C0.67 3.35 0.34 1.7 0 0 Z " fill="#01D9FB" transform="translate(884,820)"/>
<path d="M0 0 C-1.12949048 3.38847145 -2.12283218 4.19694184 -4.8125 6.4375 C-7.11265868 8.37967334 -9.27115592 10.2782916 -11.375 12.4375 C-13 14 -13 14 -15 14 C-15 13.34 -15 12.68 -15 12 C-14.34 12 -13.68 12 -13 12 C-12.773125 11.46375 -12.54625 10.9275 -12.3125 10.375 C-9.574147 5.41988505 -6.06971466 0 0 0 Z " fill="#298DED" transform="translate(734,737)"/>
<path d="M0 0 C5.32498673 0.50155186 9.35205395 3.34435727 13.8125 6.0625 C14.60076172 6.53494141 15.38902344 7.00738281 16.20117188 7.49414062 C18.13812608 8.65631315 20.07078295 9.82504417 22 11 C21.34 11.66 20.68 12.32 20 13 C13.125 9.25 13.125 9.25 12 7 C10.34015202 6.31653318 8.67163195 5.65411685 7 5 C4.62948207 3.7239448 2.32122221 2.36542483 0 1 C0 0.67 0 0.34 0 0 Z " fill="#5961E2" transform="translate(687,272)"/>
<path d="M0 0 C-2.24567681 1.48610965 -4.49609454 2.96396459 -6.75 4.4375 C-7.38421875 4.85837891 -8.0184375 5.27925781 -8.671875 5.71289062 C-9.6 6.31713867 -9.6 6.31713867 -10.546875 6.93359375 C-11.11245117 7.30540771 -11.67802734 7.67722168 -12.26074219 8.06030273 C-14.15049862 9.08131235 -15.90392138 9.56432082 -18 10 C-18.33 9.34 -18.66 8.68 -19 8 C-16.40251918 6.4666195 -13.79812104 4.94820332 -11.1875 3.4375 C-10.44951172 2.99986328 -9.71152344 2.56222656 -8.95117188 2.11132812 C-8.23896484 1.70205078 -7.52675781 1.29277344 -6.79296875 0.87109375 C-6.1383667 0.48880615 -5.48376465 0.10651855 -4.80932617 -0.28735352 C-3 -1 -3 -1 0 0 Z " fill="#05ACDB" transform="translate(849,886)"/>
<path d="M0 0 C2.31 0.66 4.62 1.32 7 2 C7 2.66 7 3.32 7 4 C8.65 4 10.3 4 12 4 C12.20625 4.61875 12.4125 5.2375 12.625 5.875 C14.54775888 8.84653645 16.66594527 9.13024659 20 10 C20 10.66 20 11.32 20 12 C15.37909884 10.35800988 11.36156215 7.9659032 7.1875 5.4375 C6.49462891 5.02564453 5.80175781 4.61378906 5.08789062 4.18945312 C3.37298683 3.15713173 1.68380945 2.08229765 0 1 C0 0.67 0 0.34 0 0 Z " fill="#6D37EA" transform="translate(445,880)"/>
<path d="M0 0 C0.66 0.33 1.32 0.66 2 1 C1.401875 2.051875 0.80375 3.10375 0.1875 4.1875 C-2.66145885 9.8144472 -3.7637277 15.85610131 -5 22 C-5.66 21.67 -6.32 21.34 -7 21 C-6.61521615 14.33041329 -4.89445477 4.89445477 0 0 Z " fill="#8413E4" transform="translate(366,450)"/>
<path d="M0 0 C1.03125 0.144375 2.0625 0.28875 3.125 0.4375 C1.125 2.4375 1.125 2.4375 -1.75 3.6875 C-5.41013973 5.73717825 -6.68989606 7.9257258 -8.875 11.4375 C-9.535 11.4375 -10.195 11.4375 -10.875 11.4375 C-9.71076973 5.31852228 -6.29495808 0.71072107 0 0 Z " fill="#524BE3" transform="translate(569.875,520.5625)"/>
<path d="M0 0 C3.3 0 6.6 0 10 0 C10.33 0.66 10.66 1.32 11 2 C7.9317362 2.89749822 5.20730024 3.11711768 2.015625 3.09765625 C1.08105469 3.09443359 0.14648438 3.09121094 -0.81640625 3.08789062 C-1.78449219 3.07951172 -2.75257813 3.07113281 -3.75 3.0625 C-4.73355469 3.05798828 -5.71710937 3.05347656 -6.73046875 3.04882812 C-9.15370791 3.03706483 -11.57682273 3.02062684 -14 3 C-14 2.67 -14 2.34 -14 2 C-9.38 2 -4.76 2 0 2 C0 1.34 0 0.68 0 0 Z " fill="#06B9F8" transform="translate(798,944)"/>
<path d="M0 0 C0 0.99 0 1.98 0 3 C-2.26530496 4.71228665 -4.46507445 6.2090036 -6.875 7.6875 C-7.52597656 8.10322266 -8.17695312 8.51894531 -8.84765625 8.94726562 C-13.70997537 12 -13.70997537 12 -16 12 C-15.67 11.01 -15.34 10.02 -15 9 C-14.34 9 -13.68 9 -13 9 C-13 8.34 -13 7.68 -13 7 C-11.96875 6.5875 -10.9375 6.175 -9.875 5.75 C-6.25451241 4.20889632 -3.2079923 2.26906772 0 0 Z " fill="#6F39EB" transform="translate(587,310)"/>
<path d="M0 0 C0.845625 0.474375 1.69125 0.94875 2.5625 1.4375 C6.12587329 3.05721513 9.12561425 3.61256143 13 4 C13.33 3.34 13.66 2.68 14 2 C14.33 3.32 14.66 4.64 15 6 C5.26995516 6.76681614 5.26995516 6.76681614 2.15625 4.88671875 C0.8125 3.5 0.8125 3.5 -1 1 C-0.67 0.67 -0.34 0.34 0 0 Z " fill="#2768CC" transform="translate(638,892)"/>
<path d="M0 0 C0.66 0 1.32 0 2 0 C3.80304155 5.30094216 5.50723624 10.60308488 7 16 C6.01 15.67 5.02 15.34 4 15 C3.05078125 12.71484375 3.05078125 12.71484375 2.3125 9.9375 C2.06113281 9.01839844 1.80976563 8.09929688 1.55078125 7.15234375 C1.36902344 6.44207031 1.18726563 5.73179687 1 5 C0.34 5 -0.32 5 -1 5 C-0.67 3.35 -0.34 1.7 0 0 Z " fill="#8E1CF5" transform="translate(359,756)"/>
<path d="M0 0 C1.74216797 0.15275391 1.74216797 0.15275391 3.51953125 0.30859375 C4.39996094 0.39238281 5.28039062 0.47617187 6.1875 0.5625 C6.1875 1.2225 6.1875 1.8825 6.1875 2.5625 C0.07659517 2.66195415 -5.78653427 2.6337828 -11.8125 1.5625 C-11.8125 1.2325 -11.8125 0.9025 -11.8125 0.5625 C-7.71524731 -0.47917441 -4.19754776 -0.38159525 0 0 Z " fill="#0E9AD9" transform="translate(777.8125,944.4375)"/>
<path d="M0 0 C6.17142857 3.08571429 6.17142857 3.08571429 8 8 C8.65213539 9.34050052 9.31379969 10.67661368 10 12 C9.01 12 8.02 12 7 12 C5.17578125 9.8828125 5.17578125 9.8828125 3.3125 7.125 C2.37857422 5.76761719 2.37857422 5.76761719 1.42578125 4.3828125 C0 2 0 2 0 0 Z " fill="#2781EB" transform="translate(677,882)"/>
<path d="M0 0 C0.33 0 0.66 0 1 0 C1.38838614 2.79040505 1.76120046 5.58137886 2.125 8.375 C2.23714844 9.1690625 2.34929688 9.963125 2.46484375 10.78125 C2.72721267 12.84521885 2.87150738 14.92339351 3 17 C2.34 17.66 1.68 18.32 1 19 C0.67 16.36 0.34 13.72 0 11 C-0.66 11 -1.32 11 -2 11 C-1.855625 10.29875 -1.71125 9.5975 -1.5625 8.875 C-0.98521625 5.92443859 -0.48304859 2.96729849 0 0 Z " fill="#2E8EF5" transform="translate(698,814)"/>
<path d="M0 0 C0.66 0.33 1.32 0.66 2 1 C-1.60700972 5.23431576 -6.14586161 7.4692099 -11 10 C-11.66 9.34 -12.32 8.68 -13 8 C-10.880788 6.63594382 -8.75551882 5.28368225 -6.625 3.9375 C-6.02171875 3.54755859 -5.4184375 3.15761719 -4.796875 2.75585938 C-3.23507443 1.77539568 -1.62007786 0.88083925 0 0 Z " fill="#6E2BDC" transform="translate(524,296)"/>
<path d="M0 0 C-1.7511548 4.28359404 -3.90404366 5.30105853 -7.95703125 7.18359375 C-10.28016679 8.11195958 -12.51698523 8.68962315 -15 9 C-12.59888822 6.36115438 -9.99444972 4.63586471 -6.9375 2.8125 C-5.62072266 2.01779297 -5.62072266 2.01779297 -4.27734375 1.20703125 C-2 0 -2 0 0 0 Z " fill="#6B31D9" transform="translate(563,274)"/>
<path d="M0 0 C0.66 0.33 1.32 0.66 2 1 C-0.42457972 3.68234235 -3.07510397 5.36856725 -6.1875 7.1875 C-7.08855469 7.71730469 -7.98960937 8.24710937 -8.91796875 8.79296875 C-9.60503906 9.19128906 -10.29210937 9.58960938 -11 10 C-11.66 9.34 -12.32 8.68 -13 8 C-10.880788 6.63594382 -8.75551882 5.28368225 -6.625 3.9375 C-6.02171875 3.54755859 -5.4184375 3.15761719 -4.796875 2.75585938 C-3.23507443 1.77539568 -1.62007786 0.88083925 0 0 Z " fill="#6F2ADA" transform="translate(509,305)"/>
<path d="M0 0 C1.89957501 0.90888756 3.79450786 1.82748031 5.6875 2.75 C7.27111328 3.51570313 7.27111328 3.51570313 8.88671875 4.296875 C11.90003083 5.94531172 14.39287648 7.77499662 17 10 C16.01 10.33 15.02 10.66 14 11 C12 9.625 12 9.625 10 8 C9.01 7.67 8.02 7.34 7 7 C7 6.34 7 5.68 7 5 C5.5459375 4.5978125 5.5459375 4.5978125 4.0625 4.1875 C3.051875 3.795625 2.04125 3.40375 1 3 C0.67 2.01 0.34 1.02 0 0 Z " fill="#506AE4" transform="translate(723,292)"/>
<path d="M0 0 C0.33 0.66 0.66 1.32 1 2 C1.66 2 2.32 2 3 2 C3 2.66 3 3.32 3 4 C3.66 4 4.32 4 5 4 C6.2890625 5.53125 6.2890625 5.53125 7.625 7.5 C8.07101562 8.1496875 8.51703125 8.799375 8.9765625 9.46875 C9.48316406 10.22671875 9.48316406 10.22671875 10 11 C7 11 7 11 5.2109375 9.57421875 C4.60507812 8.95160156 3.99921875 8.32898438 3.375 7.6875 C2.45847656 6.76517578 2.45847656 6.76517578 1.5234375 5.82421875 C0 4 0 4 -1 1 C-0.67 0.67 -0.34 0.34 0 0 Z " fill="#2582DD" transform="translate(692,900)"/>
<path d="M0 0 C0.66 0.33 1.32 0.66 2 1 C0.8758824 2.29243468 -0.24932592 3.58392075 -1.375 4.875 C-2.00148438 5.59429688 -2.62796875 6.31359375 -3.2734375 7.0546875 C-4.47426834 8.4076598 -5.7208345 9.7208345 -7 11 C-7.99 10.67 -8.98 10.34 -10 10 C-6.7 6.7 -3.4 3.4 0 0 Z " fill="#040F21" transform="translate(731,740)"/>
<path d="M0 0 C0 0.99 0 1.98 0 3 C-5.75 3.125 -5.75 3.125 -8 2 C-8 2.66 -8 3.32 -8 4 C-11 3 -11 3 -14 1 C-9.27616037 0.34843591 -4.78025483 -0.11950637 0 0 Z " fill="#05142C" transform="translate(783,719)"/>
<path d="M0 0 C4 0 4 0 5.45703125 1.30078125 C5.96621094 1.86152344 6.47539063 2.42226563 7 3 C8.54080126 4.09372939 10.10481211 5.15531225 11.6875 6.1875 C12.49574219 6.71730469 13.30398438 7.24710937 14.13671875 7.79296875 C14.75160156 8.19128906 15.36648438 8.58960938 16 9 C15.01 9.495 15.01 9.495 14 10 C11.72390931 8.80127864 9.60145838 7.56414091 7.4375 6.1875 C6.83486328 5.81818359 6.23222656 5.44886719 5.61132812 5.06835938 C1.13501913 2.27003827 1.13501913 2.27003827 0 0 Z " fill="#2D8EE6" transform="translate(809,395)"/>
<path d="M0 0 C0 0.66 0 1.32 0 2 C-1.57421875 3.5078125 -1.57421875 3.5078125 -3.6875 5.125 C-4.37199219 5.66382813 -5.05648437 6.20265625 -5.76171875 6.7578125 C-8.37932659 8.21051633 -10.05175015 8.23751225 -13 8 C-9.81692689 4.43495812 -5.03655764 0 0 0 Z " fill="#6B33DE" transform="translate(578,265)"/>
<path d="M0 0 C4.72254335 1.49132948 4.72254335 1.49132948 6.125 4.0625 C6.41375 4.701875 6.7025 5.34125 7 6 C7.99 6.33 8.98 6.66 10 7 C11.1875 10.0625 11.1875 10.0625 12 13 C10.85872377 11.85872377 9.71776264 10.71713121 8.578125 9.57421875 C7.42694314 8.42588635 6.26987213 7.28344889 5.109375 6.14453125 C4.47515625 5.51933594 3.8409375 4.89414062 3.1875 4.25 C2.58292969 3.65703125 1.97835937 3.0640625 1.35546875 2.453125 C0 1 0 1 0 0 Z " fill="#02D2F0" transform="translate(922,667)"/>
<path d="M0 0 C3.55780196 0.60990891 6.6828589 1.5783681 10 3 C10 3.66 10 4.32 10 5 C11.32 5.33 12.64 5.66 14 6 C14 6.66 14 7.32 14 8 C8.76481294 6.56032356 4.36973991 4.18303389 0 1 C0 0.67 0 0.34 0 0 Z " fill="#426CDF" transform="translate(737,353)"/>
<path d="M0 0 C0.66 0.33 1.32 0.66 2 1 C-0.25890379 3.51954654 -2.417897 4.87332733 -5.5 6.25 C-6.2734375 6.60578125 -7.046875 6.9615625 -7.84375 7.328125 C-10 8 -10 8 -13 7 C-10.88002166 5.80266012 -8.75486324 4.61701287 -6.625 3.4375 C-6.02171875 3.09525391 -5.4184375 2.75300781 -4.796875 2.40039062 C-3.23021759 1.53872905 -1.61709138 0.76281817 0 0 Z " fill="#6735D9" transform="translate(591,257)"/>
<path d="M0 0 C4.06225548 0.57823096 6.84762346 1.89117737 10.3125 4.0625 C11.19550781 4.61035156 12.07851563 5.15820312 12.98828125 5.72265625 C13.65214844 6.14417969 14.31601562 6.56570313 15 7 C12 8 12 8 9.1875 6.8125 C6.01119561 5.00636613 2.97349717 3.12392655 0 1 C0 0.67 0 0.34 0 0 Z " fill="#4560DF" transform="translate(583,909)"/>
<path d="M0 0 C2.55803184 3.83704776 4.34505724 7.75712791 3.625 12.4375 C3.41875 12.953125 3.2125 13.46875 3 14 C2.34 13.67 1.68 13.34 1 13 C-0.49713908 8.27219237 -1.51750995 4.85603184 0 0 Z " fill="#0195C2" transform="translate(933,444)"/>
<path d="M0 0 C4.4571874 0.26218749 6.51522698 0.57711289 9.9375 3.5625 C10.618125 4.366875 11.29875 5.17125 12 6 C8.55639368 6 7.25204608 5.20408468 4.3125 3.5 C3.50425781 3.0359375 2.69601562 2.571875 1.86328125 2.09375 C1.24839844 1.7328125 0.63351562 1.371875 0 1 C0 0.67 0 0.34 0 0 Z " fill="#4354D8" transform="translate(562,949)"/>
<path d="M0 0 C2.86453858 3.41016497 4.34703566 6.90694544 6 11 C4.125 10.75 4.125 10.75 2 10 C-0.35535899 6.82026536 -0.17494335 3.84875379 0 0 Z " fill="#2284E2" transform="translate(707,849)"/>
<path d="M0 0 C0.33 1.32 0.66 2.64 1 4 C1.226875 4.66 1.45375 5.32 1.6875 6 C2.09205762 8.58916878 1.33413341 9.80260379 0 12 C-0.99 12 -1.98 12 -3 12 C-2.01 8.04 -1.02 4.08 0 0 Z " fill="#003744" transform="translate(922,843)"/>
<path d="M0 0 C2.13586678 3.20380017 2.23132175 4.01939967 2.125 7.6875 C2.10695313 8.49574219 2.08890625 9.30398438 2.0703125 10.13671875 C2.04710937 10.75160156 2.02390625 11.36648438 2 12 C1.34 12 0.68 12 0 12 C-0.19477739 10.37585622 -0.38059458 8.75063577 -0.5625 7.125 C-0.66691406 6.22007812 -0.77132813 5.31515625 -0.87890625 4.3828125 C-1 2 -1 2 0 0 Z " fill="#890AEB" transform="translate(317,757)"/>
<path d="M0 0 C0 0.66 0 1.32 0 2 C-1.99284138 3.3440093 -3.99419671 4.67541292 -6 6 C-7.70328319 7.6292274 -9.38161281 9.28641357 -11 11 C-9.7672897 6.34309441 -5.30909278 0 0 0 Z " fill="#741FE3" transform="translate(444,619)"/>
<path d="M0 0 C-5.22771463 3.04157942 -8.92671312 4.50610724 -15 4 C-15 3.67 -15 3.34 -15 3 C-12.36 2.67 -9.72 2.34 -7 2 C-7 1.34 -7 0.68 -7 0 C-3.98968256 -0.93423645 -3.13349732 -1.04449911 0 0 Z " fill="#3B75ED" transform="translate(635,973)"/>
<path d="M0 0 C6.70459519 5.0940919 6.70459519 5.0940919 7.9375 8.875 C7.958125 9.57625 7.97875 10.2775 8 11 C7.67 10.34 7.34 9.68 7 9 C6.01 8.67 5.02 8.34 4 8 C4 7.01 4 6.02 4 5 C3.01 4.67 2.02 4.34 1 4 C0.3125 1.9375 0.3125 1.9375 0 0 Z " fill="#08AEE8" transform="translate(912,410)"/>
<path d="M0 0 C-0.639375 0.103125 -1.27875 0.20625 -1.9375 0.3125 C-2.618125 0.539375 -3.29875 0.76625 -4 1 C-4.33 1.99 -4.66 2.98 -5 4 C-7.97 4 -10.94 4 -14 4 C-11.37350692 2.24900461 -9.38191413 1.30690675 -6.4375 0.3125 C-5.65246094 0.04050781 -4.86742187 -0.23148438 -4.05859375 -0.51171875 C-2 -1 -2 -1 0 0 Z " fill="#00394C" transform="translate(841,939)"/>
<path d="M0 0 C4.75481646 0.57634139 7.97048212 2.55068521 12 5 C11.34 5.66 10.68 6.32 10 7 C8.33073546 6.02526874 6.66464358 5.04510211 5 4.0625 C4.071875 3.51722656 3.14375 2.97195313 2.1875 2.41015625 C1.465625 1.94480469 0.74375 1.47945312 0 1 C0 0.67 0 0.34 0 0 Z " fill="#4D5FE3" transform="translate(569,901)"/>
<path d="M0 0 C1.32 0.66 2.64 1.32 4 2 C-0.455 3.485 -0.455 3.485 -5 5 C-5.66 4.34 -6.32 3.68 -7 3 C-3.75 1.375 -3.75 1.375 0 0 Z " fill="#01C3F1" transform="translate(842,934)"/>
<path d="M0 0 C2.475 0.495 2.475 0.495 5 1 C5 1.66 5 2.32 5 3 C6.98 3.66 8.96 4.32 11 5 C11 5.66 11 6.32 11 7 C6.89188572 5.55007731 3.53144334 3.54592427 0 1 C0 0.67 0 0.34 0 0 Z " fill="#6537E9" transform="translate(466,892)"/>
<path d="M0 0 C0.99 0.495 0.99 0.495 2 1 C2 2.32 2 3.64 2 5 C2.66 5.33 3.32 5.66 4 6 C4.72159424 7.64363134 5.39351421 9.31050386 6 11 C3 10 3 10 1.3125 7.1875 C0 4 0 4 0 0 Z " fill="#9014F0" transform="translate(323,783)"/>
<path d="M0 0 C0.33 0 0.66 0 1 0 C0.85892253 1.45880109 0.71197585 2.91703551 0.5625 4.375 C0.48128906 5.18710937 0.40007813 5.99921875 0.31640625 6.8359375 C0 9 0 9 -1 11 C-1.66 11 -2.32 11 -3 11 C-2.44894091 7.0507432 -1.61064629 3.65079826 0 0 Z " fill="#2A6DD8" transform="translate(666,760)"/>
<path d="M0 0 C0.66 0.33 1.32 0.66 2 1 C-1.07999946 4.67230705 -3.2482602 5.56802365 -8 6 C-5.63404067 3.38499232 -3.13950774 1.61000397 0 0 Z " fill="#2881DE" transform="translate(731,687)"/>
<path d="M0 0 C0.99 0.33 1.98 0.66 3 1 C0.03 4.96 0.03 4.96 -3 9 C-3.33 7.68 -3.66 6.36 -4 5 C-2.0625 2.25 -2.0625 2.25 0 0 Z " fill="#8912EB" transform="translate(372,441)"/>
<path d="M0 0 C0.66 0.33 1.32 0.66 2 1 C-1.63 3.31 -5.26 5.62 -9 8 C-9.33 7.34 -9.66 6.68 -10 6 C-8.3811004 4.96951963 -6.75467511 3.95085322 -5.125 2.9375 C-4.22007812 2.36902344 -3.31515625 1.80054688 -2.3828125 1.21484375 C-1.20332031 0.61349609 -1.20332031 0.61349609 0 0 Z " fill="#712DE3" transform="translate(528,346)"/>
<path d="M0 0 C1.32 0.33 2.64 0.66 4 1 C-0.95 3.97 -0.95 3.97 -6 7 C-6 6.01 -6 5.02 -6 4 C-3 2 -3 2 0 2 C0 1.34 0 0.68 0 0 Z " fill="#6F32E5" transform="translate(555,329)"/>
<path d="M0 0 C4.75 -0.125 4.75 -0.125 7 1 C7 1.66 7 2.32 7 3 C7.66 3 8.32 3 9 3 C9.33 3.99 9.66 4.98 10 6 C6.00499382 4.6302836 3.19990508 2.74277578 0 0 Z " fill="#3B5DD8" transform="translate(595,968)"/>
<path d="M0 0 C-1.0975223 2.99324263 -1.67682892 3.84610901 -4.625 5.25 C-5.40875 5.4975 -6.1925 5.745 -7 6 C-7 5.01 -7 4.02 -7 3 C-2.77777778 0 -2.77777778 0 0 0 Z " fill="#267FE0" transform="translate(723,693)"/>
<path d="M0 0 C-3.63 1.98 -7.26 3.96 -11 6 C-10.67 4.68 -10.34 3.36 -10 2 C-3.87234043 -1.29078014 -3.87234043 -1.29078014 0 0 Z " fill="#8517EA" transform="translate(414,417)"/>
<path d="M0 0 C4.2742558 1.5830577 6.26531794 4.50568404 9 8 C6 8 6 8 3.375 5.6875 C1 3 1 3 0 0 Z " fill="#08A3D9" transform="translate(904,402)"/>
<path d="M0 0 C-1.28813342 0.83878455 -2.58063256 1.67086783 -3.875 2.5 C-4.59429687 2.9640625 -5.31359375 3.428125 -6.0546875 3.90625 C-8 5 -8 5 -10 5 C-9 2 -9 2 -6.6875 0.25 C-3.67809479 -1.14972335 -3.01958327 -0.95287489 0 0 Z " fill="#110322" transform="translate(423,358)"/>
<path d="M0 0 C3.63 1.98 7.26 3.96 11 6 C8 7 8 7 4.375 5.8125 C3.26125 5.214375 2.1475 4.61625 1 4 C0.67 2.68 0.34 1.36 0 0 Z " fill="#2A8EE9" transform="translate(820,349)"/>
<path d="M0 0 C3 1 3 1 6 3 C2.32589215 4.17571451 -1.16929183 4.07366746 -5 4 C-4.0409375 3.8453125 -4.0409375 3.8453125 -3.0625 3.6875 C-2.381875 3.460625 -1.70125 3.23375 -1 3 C-0.67 2.01 -0.34 1.02 0 0 Z " fill="#038EC0" transform="translate(810,943)"/>
<path d="M0 0 C0.99 0.33 1.98 0.66 3 1 C3 1.66 3 2.32 3 3 C4.98 3.66 6.96 4.32 9 5 C9 5.66 9 6.32 9 7 C5.56072421 5.7580393 2.74792181 4.44259716 0 2 C0 1.34 0 0.68 0 0 Z " fill="#6331E1" transform="translate(456,885)"/>
<path d="M0 0 C0.99 0.33 1.98 0.66 3 1 C-0.465 3.97 -0.465 3.97 -4 7 C-3.04065919 3.16263678 -2.76390737 2.40339772 0 0 Z " fill="#03C9F1" transform="translate(864,868)"/>
<path d="M0 0 C3.3 1.65 6.6 3.3 10 5 C6 6 6 6 2.75 4.1875 C1.8425 3.465625 0.935 2.74375 0 2 C0 1.34 0 0.68 0 0 Z " fill="#396DE2" transform="translate(622,931)"/>
<path d="M0 0 C1.4835001 0.42257276 2.96176424 0.86356322 4.4375 1.3125 C5.67306641 1.67794922 5.67306641 1.67794922 6.93359375 2.05078125 C7.61550781 2.36402344 8.29742187 2.67726563 9 3 C9.33 3.99 9.66 4.98 10 6 C6.40992874 4.66654496 3.20429093 3.1056769 0 1 C0 0.67 0 0.34 0 0 Z " fill="#7523E1" transform="translate(392,849)"/>
<path d="M0 0 C2.18975773 3.28463659 2.99806563 6.20696275 4 10 C3.01 9.67 2.02 9.34 1 9 C0.67 6.03 0.34 3.06 0 0 Z " fill="#730FD1" transform="translate(362,762)"/>
<path d="M0 0 C-0.625 1.875 -0.625 1.875 -2 4 C-5.125 5.25 -5.125 5.25 -8 6 C-6.72879117 2.18637351 -4.19078006 0 0 0 Z " fill="#7334E6" transform="translate(548,283)"/>
<path d="M0 0 C0.99 0.33 1.98 0.66 3 1 C0.69 2.65 -1.62 4.3 -4 6 C-4.66 5.67 -5.32 5.34 -6 5 C-2.25 1.125 -2.25 1.125 0 0 Z " fill="#05BFEB" transform="translate(846,885)"/>
<path d="M0 0 C0.66 0 1.32 0 2 0 C2 1.98 2 3.96 2 6 C-0.475 5.01 -0.475 5.01 -3 4 C-2.01 3.67 -1.02 3.34 0 3 C0 2.01 0 1.02 0 0 Z " fill="#6141E7" transform="translate(514,817)"/>
<path d="M0 0 C0.33 0.66 0.66 1.32 1 2 C-1.17424117 4.50037734 -2.73045798 5.43628586 -6 6 C-4.75453595 2.26360784 -3.36595047 1.81243487 0 0 Z " fill="#8B15F3" transform="translate(368,390)"/>
</svg>
