<?xml version="1.0" standalone="no"?>
<!DOCTYPE svg PUBLIC "-//W3C//DTD SVG 20010904//EN"
 "http://www.w3.org/TR/2001/REC-SVG-20010904/DTD/svg10.dtd">
<svg version="1.0" xmlns="http://www.w3.org/2000/svg"
 width="676.000000pt" height="369.000000pt" viewBox="0 0 676.000000 369.000000"
 preserveAspectRatio="xMidYMid meet">

<g transform="translate(0.000000,369.000000) scale(0.100000,-0.100000)"
fill="#000000" stroke="none">
<path d="M3165 3045 c-113 -18 -284 -84 -392 -152 -100 -62 -240 -187 -318
-283 -30 -37 -99 -147 -135 -215 -75 -142 -130 -375 -130 -550 0 -104 28 -268
69 -406 24 -80 143 -298 192 -349 8 -9 39 -42 69 -75 161 -175 398 -312 622
-361 109 -23 304 -29 418 -11 354 55 705 313 870 638 71 140 113 289 131 469
26 254 -45 537 -194 770 -57 88 -68 102 -172 205 -139 139 -287 230 -475 291
-128 42 -388 55 -555 29z m257 -445 c48 -14 94 -69 102 -124 6 -40 10 -44 66
-69 109 -50 214 -171 252 -290 6 -18 14 -129 18 -248 7 -210 8 -218 35 -267
15 -28 49 -71 76 -97 56 -54 61 -67 57 -155 l-3 -65 -225 -5 -224 -5 -9 -44
c-6 -31 -21 -55 -52 -86 -69 -70 -154 -81 -234 -33 -41 26 -91 102 -91 140 l0
28 -227 2 -228 3 -3 65 c-4 88 1 101 57 155 27 26 61 70 77 98 27 50 28 56 35
266 4 119 10 227 15 240 37 120 143 246 249 296 33 16 62 30 64 31 1 2 5 20 8
41 6 48 50 105 94 120 43 15 46 15 91 3z"/>
<path d="M3315 2538 c-14 -13 -29 -36 -34 -53 l-8 -30 108 0 c60 0 109 1 109
3 0 18 -33 73 -51 86 -34 24 -93 21 -124 -6z"/>
<path d="M3213 2379 c-115 -49 -200 -137 -246 -253 -17 -43 -20 -81 -24 -241
-4 -187 -13 -261 -40 -300 -7 -11 -13 -23 -13 -27 0 -5 138 -8 306 -8 286 0
305 -1 302 -17 -3 -17 -28 -18 -324 -21 l-322 -2 -41 -45 c-39 -42 -42 -50
-39 -93 l3 -47 605 0 605 0 3 48 c3 44 0 50 -46 100 -108 115 -122 159 -122
383 0 138 -4 182 -20 237 -36 127 -118 223 -238 280 -60 29 -78 32 -172 35
-98 2 -110 0 -177 -29z m312 -99 c73 -33 127 -86 160 -155 29 -62 38 -160 15
-160 -10 0 -17 15 -22 48 -13 96 -82 193 -164 232 -19 9 -62 21 -94 27 -35 7
-60 17 -60 24 0 31 81 23 165 -16z m193 -422 c-2 -30 -8 -43 -18 -43 -10 0
-16 13 -18 43 -3 37 -1 42 18 42 19 0 21 -5 18 -42z m-3 -328 c0 -12 -14 -15
-65 -15 -54 0 -65 3 -68 18 -3 16 3 18 65 15 52 -2 68 -6 68 -18z"/>
<path d="M3235 1248 c16 -75 72 -118 151 -118 56 0 102 30 128 83 32 68 33 67
-135 67 l-151 0 7 -32z m83 -18 c15 -19 31 -30 48 -30 27 0 43 -25 26 -42 -27
-27 -132 51 -118 88 8 21 20 17 44 -16z"/>
</g>
</svg>
