<?xml version="1.0" standalone="no"?>
<!DOCTYPE svg PUBLIC "-//W3C//DTD SVG 20010904//EN"
 "http://www.w3.org/TR/2001/REC-SVG-20010904/DTD/svg10.dtd">
<svg version="1.0" xmlns="http://www.w3.org/2000/svg"
 width="500.000000pt" height="500.000000pt" viewBox="0 0 500.000000 500.000000"
 preserveAspectRatio="xMidYMid meet">

<g transform="translate(0.000000,500.000000) scale(0.100000,-0.100000)"
fill="#000000" stroke="none">
<path d="M2335 4374 c-16 -2 -66 -9 -110 -15 -181 -24 -417 -102 -582 -190
-537 -290 -886 -806 -968 -1432 -61 -470 78 -964 380 -1352 97 -124 285 -300
416 -387 171 -114 413 -228 485 -228 78 0 94 43 94 259 l0 169 -122 -5 c-295
-13 -439 62 -543 280 -48 101 -112 182 -173 218 -60 36 -82 60 -82 91 0 34 26
43 109 35 100 -9 175 -60 257 -177 108 -155 191 -203 349 -204 59 -1 110 5
146 16 l56 18 13 57 c12 56 42 124 76 170 16 22 16 23 -14 23 -43 0 -187 35
-263 63 -333 125 -490 340 -528 724 -10 95 -1 242 20 330 16 68 91 221 132
268 32 37 33 42 24 75 -6 19 -11 94 -12 165 0 123 9 188 38 274 l12 33 66 -5
c88 -7 201 -52 328 -130 l104 -63 95 22 c134 33 226 44 362 44 136 0 228 -11
362 -44 l95 -22 104 63 c130 79 241 123 329 130 l67 6 22 -83 c29 -106 37
-245 21 -347 l-12 -80 37 -48 c114 -150 167 -363 145 -582 -14 -134 -27 -194
-63 -287 -35 -93 -58 -136 -103 -191 -96 -119 -192 -187 -356 -249 -79 -29
-227 -66 -267 -66 -34 0 -39 -11 -15 -31 8 -7 25 -30 36 -52 45 -89 48 -116
48 -455 0 -343 4 -377 48 -401 32 -17 64 -13 144 15 352 126 709 418 915 749
217 348 315 767 272 1163 -45 422 -230 820 -518 1116 -278 285 -610 461 -1006
531 -86 16 -404 28 -470 19z"/>
<path d="M1334 1685 c-7 -18 12 -45 32 -45 17 0 18 32 2 48 -16 16 -27 15 -34
-3z"/>
<path d="M1420 1542 c0 -21 18 -42 37 -42 16 0 17 32 1 48 -18 18 -38 15 -38
-6z"/>
<path d="M1545 1430 c-10 -16 15 -40 41 -40 29 0 31 11 6 33 -21 19 -38 22
-47 7z"/>
<path d="M1717 1363 c-13 -12 15 -33 44 -33 31 0 40 23 13 34 -21 8 -49 8 -57
-1z"/>
<path d="M1910 1355 c-10 -12 -9 -16 3 -21 26 -10 62 0 65 19 3 13 -3 17 -26
17 -16 0 -35 -7 -42 -15z"/>
</g>
</svg>
