<?xml version="1.0" standalone="no"?>
<!DOCTYPE svg PUBLIC "-//W3C//DTD SVG 20010904//EN"
 "http://www.w3.org/TR/2001/REC-SVG-20010904/DTD/svg10.dtd">
<svg version="1.0" xmlns="http://www.w3.org/2000/svg"
 width="500.000000pt" height="500.000000pt" viewBox="0 0 500.000000 500.000000"
 preserveAspectRatio="xMidYMid meet">

<g transform="translate(0.000000,500.000000) scale(0.100000,-0.100000)"
fill="#000000" stroke="none">
<path d="M2335 3750 c-360 -53 -684 -270 -873 -582 -22 -37 -43 -76 -46 -86
-6 -18 68 -82 331 -284 l62 -48 41 83 c114 231 311 372 567 407 177 24 378
-30 509 -136 l41 -33 181 182 181 182 -41 35 c-149 124 -310 207 -498 256 -75
20 -127 26 -245 29 -82 2 -177 0 -210 -5z"/>
<path d="M2512 2533 c-3 -149 -1 -183 10 -177 10 6 10 5 2 -7 -6 -8 -14 -29
-16 -46 l-5 -33 306 -1 c336 -1 367 -2 376 -11 10 -10 14 -49 4 -43 -8 6 -13
-8 -10 -27 0 -5 -4 -8 -10 -8 -8 0 -7 -6 2 -17 9 -10 9 -14 2 -10 -12 7 -44
-40 -49 -71 -1 -8 -9 -19 -16 -25 -30 -25 -40 -45 -27 -53 8 -5 10 -3 4 7 -4
8 0 6 11 -3 17 -17 17 -19 2 -34 -15 -15 -16 -15 -15 1 1 10 -4 20 -12 23 -8
3 -11 0 -7 -7 5 -7 1 -9 -8 -5 -9 4 -16 1 -16 -6 0 -7 -8 -19 -17 -26 -14 -11
-14 -13 -3 -11 8 2 12 2 7 0 -4 -3 -4 -9 -1 -15 4 -7 0 -7 -12 0 -15 8 -25 5
-44 -11 -14 -11 -18 -18 -8 -14 12 4 16 1 13 -12 -4 -22 32 -81 51 -81 7 0 21
-11 30 -25 9 -14 22 -25 29 -25 14 0 46 -25 116 -92 51 -49 63 -55 74 -38 8
13 25 3 25 -13 0 -7 -4 -6 -10 3 -6 9 -10 10 -10 3 0 -7 10 -18 22 -24 18 -10
24 -8 35 7 8 11 16 17 18 14 5 -6 68 67 84 98 7 12 9 28 5 35 -5 7 0 6 12 -3
10 -8 16 -10 12 -6 -4 5 0 15 10 22 9 7 17 16 17 21 0 4 10 23 23 40 13 18 20
37 17 43 -3 5 -2 10 4 10 12 0 27 26 32 55 2 11 10 26 16 33 7 7 16 25 19 40
3 15 12 39 20 54 12 21 13 36 5 64 -8 29 -7 33 3 24 14 -11 25 12 33 65 2 11
9 52 17 90 17 90 16 339 -1 357 -15 14 -17 32 -4 24 5 -4 8 2 7 11 -3 17 -38
18 -587 20 l-585 1 -2 -185z m1135 -325 c-3 -8 -6 -5 -6 6 -1 11 2 17 5 13 3
-3 4 -12 1 -19z m-7 -28 c0 -5 -2 -10 -4 -10 -3 0 -8 5 -11 10 -3 6 -1 10 4
10 6 0 11 -4 11 -10z m-488 -82 c-7 -7 -12 -8 -12 -2 0 14 12 26 19 19 2 -3
-1 -11 -7 -17z m470 -15 c-6 -2 -9 -10 -6 -15 4 -7 2 -8 -5 -4 -13 9 -5 26 12
25 9 0 8 -2 -1 -6z m-68 -177 c-6 -15 -24 -23 -24 -11 0 8 24 34 28 30 1 -1 0
-10 -4 -19z m-74 -121 c0 -8 -2 -15 -4 -15 -2 0 -6 7 -10 15 -3 8 -1 15 4 15
6 0 10 -7 10 -15z m-90 -93 c0 -5 -6 -16 -13 -26 -12 -16 -13 -16 -13 3 0 11
4 17 8 15 4 -3 8 0 8 5 0 6 2 11 5 11 3 0 5 -4 5 -8z"/>
<path d="M2925 1879 c-4 -6 -4 -13 -1 -16 3 -4 6 0 6 8 0 10 3 10 8 3 5 -9 11
-8 20 2 11 12 9 14 -7 14 -11 0 -23 -5 -26 -11z"/>
<path d="M3295 1569 c-4 -6 -5 -12 -2 -15 2 -3 7 2 10 11 7 17 1 20 -8 4z"/>
</g>
</svg>
