<?xml version="1.0" standalone="no"?>
<!DOCTYPE svg PUBLIC "-//W3C//DTD SVG 20010904//EN"
 "http://www.w3.org/TR/2001/REC-SVG-20010904/DTD/svg10.dtd">
<svg version="1.0" xmlns="http://www.w3.org/2000/svg"
 width="676.000000pt" height="369.000000pt" viewBox="0 0 676.000000 369.000000"
 preserveAspectRatio="xMidYMid meet">

<g transform="translate(0.000000,369.000000) scale(0.100000,-0.100000)"
fill="#000000" stroke="none">
<path d="M3175 3045 c-239 -43 -439 -149 -615 -325 -314 -312 -433 -735 -329
-1169 52 -217 146 -387 303 -550 179 -185 382 -299 621 -349 98 -20 352 -22
440 -4 376 80 694 331 854 673 78 167 111 324 111 533 0 336 -122 630 -359
866 -178 176 -383 285 -610 324 -112 19 -316 20 -416 1z m920 -470 c31 -30 33
-82 5 -113 -34 -37 -55 -29 -55 20 l0 42 -42 -3 c-37 -2 -43 0 -43 18 0 26 46
61 82 61 17 0 39 -10 53 -25z m-164 -191 c17 -21 0 -49 -31 -49 -31 0 -48 28
-31 49 8 9 21 16 31 16 10 0 23 -7 31 -16z m-531 -363 c0 -5 -28 -32 -62 -60
l-63 -51 -282 0 -283 0 0 33 c0 36 13 58 45 75 25 14 645 16 645 3z m603 -3
c33 -17 46 -39 47 -75 l0 -33 -182 0 -181 0 19 23 c10 12 34 39 53 60 l35 37
94 0 c52 0 103 -5 115 -12z m49 -508 c2 -132 0 -253 -5 -270 -16 -62 10 -60
-668 -60 -698 0 -653 -5 -670 80 -9 45 -11 468 -2 483 2 4 305 7 673 7 l669 0
3 -240z m222 -368 c3 -5 -1 -9 -9 -9 -8 0 -12 4 -9 9 3 4 7 8 9 8 2 0 6 -4 9
-8z m-707 -448 c-3 -3 -12 -4 -19 -1 -8 3 -5 6 6 6 11 1 17 -2 13 -5z"/>
<path d="M2952 1658 c-18 -11 -56 -23 -85 -27 l-52 -6 1 -95 c0 -113 22 -170
84 -223 83 -71 109 -72 184 -6 74 65 90 105 91 224 l0 100 -55 7 c-30 5 -69
17 -88 28 -39 24 -38 24 -80 -2z m131 -56 l57 -17 0 -63 c0 -66 -16 -116 -50
-159 -24 -31 -79 -73 -96 -73 -22 0 -107 84 -125 125 -12 26 -19 64 -19 108 0
63 1 67 23 68 12 0 42 8 67 19 25 10 54 16 65 13 11 -3 46 -12 78 -21z"/>
<path d="M3813 1652 c-2 -10 -14 -22 -26 -27 -24 -11 -34 -54 -19 -81 5 -10
29 -25 53 -35 30 -11 44 -22 44 -35 0 -25 -54 -33 -67 -10 -10 18 -48 22 -48
6 0 -14 46 -60 59 -60 6 0 8 -7 5 -15 -4 -10 0 -15 15 -15 12 0 21 6 21 13 0
8 11 20 25 27 28 15 40 47 31 78 -4 11 -28 28 -57 41 -37 15 -50 25 -47 38 4
23 41 28 58 8 14 -17 50 -20 50 -4 0 6 -13 24 -30 39 -16 15 -30 33 -30 39 0
18 -32 12 -37 -7z"/>
<path d="M3252 1293 c3 -16 21 -18 203 -18 182 0 200 2 203 18 3 16 -12 17
-203 17 -191 0 -206 -1 -203 -17z"/>
<path d="M3732 1293 c3 -16 15 -18 103 -18 82 0 100 3 100 15 0 12 -19 16
-103 18 -95 2 -103 1 -100 -15z"/>
</g>
</svg>
